<svg width="438" height="573" viewBox="0 0 438 573" fill="none" xmlns="http://www.w3.org/2000/svg">
<g clip-path="url(#clip0_18_1658)">
<path d="M203.726 569.952C202.993 569.953 202.288 569.668 201.761 569.159C201.234 568.65 200.925 567.956 200.901 567.223L213.475 391.515H230.959L206.55 567.223C206.526 567.956 206.218 568.65 205.691 569.159C205.164 569.668 204.459 569.953 203.726 569.952Z" fill="#FFFBFC" stroke="#7F2CCB" stroke-width="5" stroke-miterlimit="10" stroke-linecap="round"/>
<path d="M312.361 569.952C311.628 569.953 310.923 569.668 310.396 569.159C309.869 568.65 309.561 567.956 309.537 567.223L285.128 391.515H302.612L315.186 567.223C315.162 567.956 314.854 568.65 314.327 569.159C313.799 569.668 313.095 569.953 312.361 569.952Z" fill="#FFFBFC" stroke="#7F2CCB" stroke-width="5" stroke-miterlimit="10" stroke-linecap="round"/>
<path d="M362.75 569.952C362.017 569.953 361.312 569.668 360.785 569.159C360.258 568.65 359.949 567.956 359.925 567.223L335.517 391.515H353L365.574 567.223C365.55 567.956 365.242 568.65 364.715 569.159C364.188 569.668 363.483 569.953 362.75 569.952Z" fill="#FFFBFC" stroke="#7F2CCB" stroke-width="5" stroke-miterlimit="10" stroke-linecap="round"/>
<path d="M369.213 353.84L364.165 374.065H347.569L352.617 353.84H369.213Z" fill="#FFFBFC" stroke="#7F2CCB" stroke-width="5" stroke-miterlimit="10" stroke-linecap="round"/>
<path d="M304.433 353.84L299.385 374.065H282.79L287.838 353.84H304.433Z" fill="#FFFBFC" stroke="#7F2CCB" stroke-width="5" stroke-miterlimit="10" stroke-linecap="round"/>
<path d="M366.411 372.676H192.941C187.222 372.676 182.586 377.305 182.586 383.017C182.586 388.728 187.222 393.358 192.941 393.358H366.411C372.13 393.358 376.766 388.728 376.766 383.017C376.766 377.305 372.13 372.676 366.411 372.676Z" fill="#B48291"/>
<path d="M437.778 211.73L406.32 337.79C405.077 342.767 402.204 347.186 398.157 350.343C394.11 353.501 389.122 355.217 383.987 355.216H269.342C262.995 355.216 258.58 345.635 260.767 336.598L292.105 207.149C293.593 200.999 297.453 196.917 301.775 196.917H426.332C431.389 196.917 439.502 204.559 437.778 211.73Z" fill="#B48291"/>
<path d="M75.9708 539.536C75.9708 542.732 85.8682 552.516 82.5351 568.872C82.5351 568.872 58.1176 568.909 46.1399 568.983C31.9017 569.07 1.61784 569.07 1.61784 569.07C1.61784 569.07 -1.32225 556.035 14.275 554.23C29.8723 552.424 49.644 535.958 49.644 535.958L75.9708 539.536Z" fill="#3F3732"/>
<path d="M83.5844 570.368C69.3462 570.456 1.61768 570.456 1.61768 570.456" stroke="#7F2CCB" stroke-width="7" stroke-miterlimit="10" stroke-linecap="round"/>
<path d="M50.1061 535.958C51.6501 531.659 53.8737 517.617 53.8737 517.617L78.9615 519.815C78.9615 519.815 74.801 529.202 75.5083 539.075C75.7487 542.404 48.4095 540.672 50.1061 535.958Z" fill="#CD9F67"/>
<path d="M303.292 360.744C275.398 372.131 144.633 364.941 144.633 364.941C144.633 364.941 141.956 467.271 92.7837 520.244C92.7837 520.244 58.8663 519.108 49.5698 516.712C49.5698 516.712 75.2725 363.565 93.6481 333.482C103.356 317.556 212.657 293.253 236.224 291.208C243.243 295.878 250.694 299.868 258.474 303.121C279.896 312.148 301.868 315.381 318.39 316.336C320.928 331.131 321.33 353.383 303.292 360.744Z" fill="#361852"/>
<path d="M94.9244 539.536C94.9244 542.732 104.822 552.516 101.489 568.872C101.489 568.872 77.0712 568.909 65.0935 568.983C50.8553 569.07 20.5715 569.07 20.5715 569.07C20.5715 569.07 17.6314 556.035 33.2287 554.23C48.8259 552.424 68.5976 535.958 68.5976 535.958L94.9244 539.536Z" fill="black"/>
<path d="M102.538 570.368C88.2998 570.456 20.5713 570.456 20.5713 570.456" stroke="#7F2CCB" stroke-width="7" stroke-miterlimit="10" stroke-linecap="round"/>
<path d="M69.0597 535.958C70.6037 531.659 72.8273 517.617 72.8273 517.617L101.613 520.738C101.613 520.738 96.3896 525.522 94.4619 539.075C93.9904 542.376 67.3631 540.672 69.0597 535.958Z" fill="#E0A053"/>
<path d="M323.48 372.782C295.586 384.183 164.821 376.979 164.821 376.979C164.821 376.979 167.521 466.098 105.751 520.9C105.751 520.9 74.843 518.679 65.5327 516.282C65.5327 516.282 105.122 371.586 113.822 345.52C118.584 331.251 240.024 303.74 258.46 303.121C288.873 315.939 320.359 317.043 335.864 316.627C338.633 326.001 347.754 362.877 323.48 372.782Z" fill="#7F2CCB"/>
<path d="M243.737 252.582C212.098 258.885 136.09 256.183 104.225 249.788C102.497 251.123 100.681 252.34 98.789 253.431C94.6285 255.819 86.6172 257.749 84.7172 257.642C82.8173 257.536 71.1586 255.749 71.1586 255.749C71.1586 255.749 70.7425 254.433 72.4483 252.697C74.1541 250.961 86.6588 252.341 82.0869 248.541C80.0528 246.842 69.9243 250.665 65.5188 254.904C61.1133 259.143 59.0469 255.786 59.0469 255.786C59.0469 255.786 63.2629 247.936 64.7745 246.514C66.2862 245.092 76.3315 239.061 83.1362 238.142C88.0641 237.477 99.917 238.392 106.19 239.902C129.438 234.388 174.043 227.36 205.802 227.614C210.023 210.068 215.149 188.587 216.513 182.233L239.091 197.009L243.737 252.582Z" fill="#CD9F67"/>
<path d="M216.513 182.233L215.089 188.536C215.089 188.536 220.937 203.335 239.812 208.22L239.09 197L216.513 182.233Z" fill="#C68E4A"/>
<path d="M354.022 221.672C354.022 221.672 352.335 221.565 349.492 221.274C346.256 245.143 343.409 265.192 343.409 269.593C343.409 281.418 345.72 316.05 345.72 316.05C345.72 316.05 283.377 323.037 235.827 290.935C235.827 290.935 246.848 276.117 241.129 229.424C237.329 198.362 239.091 197 239.091 197C239.091 197 227.441 190.932 210.919 177.86C210.919 177.86 219.495 135.517 233.174 127.21C246.852 118.903 268.08 115.029 282.175 109.728C296.27 104.427 317.697 98.9224 317.697 98.9224C323.415 103.609 350.565 116.866 357.3 124.818C366.897 133.605 380.053 168.454 354.022 221.672Z" fill="#CEEFF7"/>
<path d="M299.21 207.745C299.21 207.745 305.039 198.182 312.071 163.319" stroke="#745455" stroke-width="5" stroke-miterlimit="10"/>
<path d="M238.573 196.118C237.907 187.686 238.804 171.908 239.895 163.139" stroke="#745455" stroke-width="5" stroke-miterlimit="10"/>
<path d="M349.483 221.275C349.483 221.275 324.774 283.649 313.587 284.683C277.15 288.049 216.258 253.39 203.102 252.984L197.333 252.799C194.097 254.697 189.982 256.313 186.502 255.292C179.484 253.242 173.863 248.177 169.212 250.351C164.562 252.526 159.195 256.701 156.245 256.354C150.074 255.611 146.514 252.337 146.514 252.337C146.514 252.337 150.356 248.154 154.234 244.178C151.484 245.254 147.3 248.209 145.16 249.225C141.924 250.753 140.26 248.02 140.26 248.02C140.26 248.02 147.476 241.652 149.968 240.142C152.376 238.687 159.135 237.159 162.546 237.085C166.674 236.531 189.317 233.442 200.985 234.67C214.363 234.176 241.203 235.132 288.485 244.012L302.034 209.297C302.034 209.297 322.61 218.435 349.483 221.275Z" fill="#E0A053"/>
<path d="M349.483 221.279C349.483 221.279 347.25 226.917 343.82 234.832C332.582 231.516 314.363 224.474 301.29 211.199L302.034 209.287C302.034 209.287 322.615 218.435 349.483 221.279Z" fill="#C68E4A"/>
<path d="M292.983 57.3226C292.983 57.3226 294.832 83.6428 317.682 98.9224C317.682 98.9224 305.64 125.243 277.876 127.062C250.111 128.881 271.048 113.306 271.048 113.306C271.048 113.306 263.804 89.364 262.574 83.6567L292.983 57.3226Z" fill="#E0A053"/>
<path d="M292.899 70.9907C291.513 83.0287 280.88 100.285 267.691 102.053C265.62 95.0113 263.235 86.7135 262.579 83.6567L291.448 58.6432L292.345 60.4256C292.345 60.4256 293.195 68.451 292.899 70.9907Z" fill="#C68E4A"/>
<path d="M290.81 59.2066C290.81 59.2066 291.24 67.4582 290.131 69.7624C285.023 80.3828 269.005 92.5732 256.551 92.5732C246.912 92.5732 235.619 63.2377 234.602 52.428C233.585 41.6182 235.009 24.4916 261.137 22.4553C287.265 20.4189 289.105 47.5334 289.105 47.5334L290.81 59.2066Z" fill="#E0A053"/>
<path d="M214.594 41.4197C214.594 41.4197 209.736 31.7782 217.858 24.6994C227.441 16.337 236.224 20.2111 241.134 14.9102C246.043 9.60918 256.301 -1.71312 271.552 0.221641C285.226 1.95785 289.215 11.4424 289.215 11.4424C289.215 11.4424 297.675 7.8822 305.021 17.4452C312.366 27.0082 294.624 66.8533 294.624 66.8533C294.624 66.8533 289.849 50.9781 289.104 47.5611C287.436 39.9097 272.365 41.7152 273.59 26.7589C273.59 26.7589 269.508 36.9545 253.994 36.7605C249.372 36.7051 243.399 35.4399 237.468 34.5626C234.186 40.3669 234.098 47.1686 234.602 52.4511C234.602 52.428 220.729 52.2156 214.594 41.4197Z" fill="black"/>
<path d="M288.795 11.4424C288.795 11.4424 295.646 4.93618 302.918 11.1561" stroke="black" stroke-width="3" stroke-miterlimit="10"/>
<path d="M273.59 25.8954C273.59 25.8954 270.747 39.6234 255.256 40.5193" stroke="black" stroke-width="3" stroke-miterlimit="10"/>
<path d="M293.21 43.1928L288.282 6.02593C288.119 4.78879 287.488 3.6607 286.52 2.87264C285.551 2.08459 284.318 1.69619 283.072 1.78699" stroke="#7F2CCB" stroke-width="5" stroke-miterlimit="10" stroke-linecap="round"/>
<path d="M297.31 70.1502C298.632 76.6518 310.143 94.4341 290.131 128.369C270.119 162.303 296.14 172.411 282.979 195.656C269.818 218.901 241.286 217.626 242.761 256.525C243.732 282.12 220.756 285.583 222.083 256.525" stroke="#7F2CCB" stroke-width="5" stroke-miterlimit="10" stroke-linecap="round"/>
<path d="M255.377 221.676C262.246 216.075 269.194 184.357 258.173 166.311C247.153 148.266 236.382 123.94 252.626 93.2982" stroke="#7F2CCB" stroke-width="5" stroke-miterlimit="10" stroke-linecap="round"/>
<path d="M297.62 42.544L287.902 44.0103C284.946 44.4564 282.911 47.2117 283.358 50.1645L285.818 66.4324C286.265 69.3852 289.023 71.4173 291.979 70.9713L301.697 69.505C304.653 69.0589 306.687 66.3036 306.241 63.3508L303.781 47.0829C303.334 44.1301 300.576 42.098 297.62 42.544Z" fill="#FFFBFC" stroke="#7F2CCB" stroke-width="6" stroke-miterlimit="10"/>
<path d="M9.66162 265.811H258.414C261.058 265.811 263.203 268.877 263.203 272.663V273.291C263.203 277.073 261.058 280.139 258.414 280.139H71.1447" fill="#FFFBFC"/>
<path d="M12.4351 264.887H258.414C261.058 264.887 263.203 267.953 263.203 271.74V272.368C263.203 276.15 261.058 279.216 258.414 279.216H72.069" stroke="black" stroke-width="5" stroke-miterlimit="10" stroke-linecap="round"/>
<path d="M246.723 573L199.594 279.678H215.82L262.487 572.538L246.723 573Z" fill="#FFFBFC"/>
<path d="M218.561 294.574L201.059 288.049L199.589 279.678H215.824L218.561 294.574Z" fill="#CEEFF7"/>
<path d="M245.799 571.153L199.594 279.678H215.82L261.562 570.691" stroke="black" stroke-width="7" stroke-miterlimit="10" stroke-linecap="round"/>
<path d="M187.269 252.812H47.2773C45.4222 252.813 43.6116 252.245 42.0904 251.185C40.5691 250.124 39.4105 248.623 38.7713 246.883L6.50889 159.062C6.10545 157.973 5.97178 156.802 6.11927 155.65C6.26676 154.498 6.69103 153.399 7.35589 152.447C8.02075 151.494 8.90646 150.716 9.93744 150.18C10.9684 149.643 12.1141 149.363 13.2766 149.365H155.118C157.211 149.367 159.253 150.011 160.967 151.211C162.682 152.412 163.985 154.109 164.701 156.074L195.775 240.65C196.276 242.017 196.44 243.485 196.252 244.929C196.064 246.374 195.53 247.751 194.695 248.945C193.86 250.139 192.749 251.114 191.456 251.787C190.163 252.46 188.727 252.812 187.269 252.812Z" fill="#FFFBFC" stroke="#B48291" stroke-width="5" stroke-miterlimit="10"/>
<path d="M181.177 252.812H45.8906C44.0751 252.794 42.31 252.214 40.8381 251.152C39.3662 250.09 38.2598 248.599 37.6713 246.883L6.49521 159.062C4.82638 154.366 8.19177 149.365 13.0365 149.365H150.107C152.151 149.387 154.138 150.043 155.794 151.24C157.449 152.437 158.693 154.118 159.352 156.051L189.4 240.631C191.49 246.579 187.26 252.812 181.177 252.812Z" fill="#FFFBFC" stroke="#B48291" stroke-width="5" stroke-miterlimit="10"/>
<path d="M247.014 252.812H45.6039C43.0329 252.812 40.9487 254.894 40.9487 257.462V257.702C40.9487 260.271 43.0329 262.352 45.6039 262.352H247.014C249.585 262.352 251.669 260.271 251.669 257.702V257.462C251.669 254.894 249.585 252.812 247.014 252.812Z" fill="#FFFBFC" stroke="#B48291" stroke-width="5" stroke-miterlimit="10"/>
</g>
<defs>
<clipPath id="clip0_18_1658">
<rect width="438" height="573" fill="white"/>
</clipPath>
</defs>
</svg>
