<svg width="490" height="67" viewBox="0 0 490 67" fill="none" xmlns="http://www.w3.org/2000/svg">
<path d="M1.41113 53V49.8623L5.47021 49.165V18.0122L1.41113 17.3149V14.1523H10.376V29.6416C11.3057 28.3467 12.4429 27.3423 13.7876 26.6284C15.1323 25.9146 16.6265 25.5576 18.27 25.5576C21.1587 25.5576 23.3999 26.4209 24.9937 28.1475C26.5874 29.874 27.3843 32.5303 27.3843 36.1162V49.165L31.4434 49.8623V53H18.4194V49.8623L22.4785 49.165V36.0664C22.4785 33.8418 21.9971 32.1982 21.0342 31.1357C20.0879 30.0732 18.6685 29.542 16.7759 29.542C15.4312 29.542 14.2026 29.8657 13.0903 30.5132C11.9946 31.144 11.0898 32.0073 10.376 33.103V49.165L14.4351 49.8623V53H1.41113ZM46.584 53.5229C44.0938 53.5229 41.9438 52.9419 40.1343 51.7798C38.3413 50.6011 36.9551 48.9824 35.9756 46.9238C34.9961 44.8486 34.5063 42.4829 34.5063 39.8267V39.2788C34.5063 36.6226 34.9961 34.2651 35.9756 32.2065C36.9551 30.1313 38.3413 28.5044 40.1343 27.3257C41.9438 26.147 44.0771 25.5576 46.5342 25.5576C49.0244 25.5576 51.166 26.147 52.959 27.3257C54.7686 28.5044 56.1631 30.123 57.1426 32.1816C58.1221 34.2402 58.6118 36.606 58.6118 39.2788V39.8267C58.6118 42.4995 58.1221 44.8735 57.1426 46.9487C56.1631 49.0073 54.7769 50.6177 52.9839 51.7798C51.1909 52.9419 49.0576 53.5229 46.584 53.5229ZM46.584 49.688C48.1445 49.688 49.4478 49.2646 50.4937 48.418C51.5562 47.5547 52.353 46.3843 52.8843 44.9067C53.4321 43.4126 53.7061 41.7192 53.7061 39.8267V39.2788C53.7061 37.3862 53.4321 35.7012 52.8843 34.2236C52.353 32.7295 51.5562 31.5591 50.4937 30.7124C49.4312 29.8491 48.1113 29.4175 46.5342 29.4175C44.9736 29.4175 43.6621 29.8491 42.5996 30.7124C41.5371 31.5591 40.7402 32.7295 40.209 34.2236C39.6777 35.7012 39.4121 37.3862 39.4121 39.2788V39.8267C39.4121 41.7192 39.6777 43.4126 40.209 44.9067C40.7402 46.3843 41.5371 47.5547 42.5996 48.418C43.6787 49.2646 45.0068 49.688 46.584 49.688ZM62.397 53V49.8623L66.4561 49.165V29.9155L62.397 29.2183V26.0557H70.8638L71.1875 29.5669C72.0508 28.2886 73.1631 27.3008 74.5244 26.6035C75.8857 25.9062 77.4629 25.5576 79.2559 25.5576C81.0488 25.5576 82.5845 25.9727 83.8628 26.8027C85.1577 27.6328 86.1289 28.8779 86.7764 30.5381C87.623 29.0107 88.7437 27.7988 90.1382 26.9023C91.5327 26.0059 93.1597 25.5576 95.019 25.5576C97.7749 25.5576 99.9497 26.5039 101.543 28.3965C103.137 30.2725 103.934 33.103 103.934 36.8882V49.165L107.993 49.8623V53H94.9443V49.8623L99.0034 49.165V36.8384C99.0034 34.1821 98.5469 32.3062 97.6338 31.2104C96.7207 30.0981 95.3677 29.542 93.5747 29.542C91.8647 29.542 90.4868 30.1479 89.4409 31.3599C88.4116 32.5552 87.814 34.0659 87.6479 35.8921V49.165L91.707 49.8623V53H78.6831V49.8623L82.7422 49.165V36.8384C82.7422 34.3149 82.269 32.4722 81.3228 31.3101C80.3931 30.1313 79.04 29.542 77.2637 29.542C75.7695 29.542 74.541 29.8491 73.5781 30.4634C72.6152 31.0776 71.8765 31.9409 71.3618 33.0532V49.165L75.4209 49.8623V53H62.397ZM123.532 53.5229C121.042 53.5229 118.875 52.9585 117.033 51.8296C115.19 50.6841 113.762 49.0986 112.75 47.0732C111.753 45.0479 111.255 42.707 111.255 40.0508V38.9551C111.255 36.3984 111.778 34.1157 112.824 32.1069C113.887 30.0815 115.29 28.4878 117.033 27.3257C118.792 26.147 120.71 25.5576 122.785 25.5576C125.209 25.5576 127.234 26.0557 128.861 27.0518C130.505 28.0479 131.742 29.4507 132.572 31.2603C133.402 33.0532 133.817 35.1699 133.817 37.6104V40.6733H116.335L116.261 40.7979C116.294 42.5244 116.593 44.0601 117.157 45.4048C117.738 46.7329 118.568 47.7788 119.647 48.5425C120.727 49.3062 122.021 49.688 123.532 49.688C125.192 49.688 126.645 49.4556 127.89 48.9907C129.152 48.5093 130.239 47.8535 131.152 47.0234L133.07 50.2109C132.107 51.1406 130.829 51.9292 129.235 52.5767C127.658 53.2075 125.757 53.5229 123.532 53.5229ZM116.485 36.8384H128.911V36.1909C128.911 34.896 128.679 33.7422 128.214 32.7295C127.766 31.7002 127.085 30.895 126.172 30.314C125.275 29.7163 124.146 29.4175 122.785 29.4175C121.689 29.4175 120.693 29.7412 119.797 30.3887C118.9 31.0195 118.162 31.8828 117.581 32.9785C117 34.0742 116.618 35.3193 116.435 36.7139L116.485 36.8384Z" fill="white"/>
<path d="M174.098 53.5229C171.292 53.5229 169.159 52.8423 167.698 51.481C166.237 50.103 165.507 48.1689 165.507 45.6787C165.507 43.9688 165.972 42.4829 166.901 41.2212C167.848 39.9429 169.209 38.9551 170.985 38.2578C172.762 37.5439 174.887 37.187 177.36 37.187H182.167V34.5474C182.167 32.9204 181.668 31.6587 180.672 30.7622C179.693 29.8657 178.307 29.4175 176.514 29.4175C175.385 29.4175 174.405 29.5586 173.575 29.8408C172.745 30.1064 171.99 30.48 171.309 30.9614L170.786 34.7217H167.001V28.5459C168.213 27.5664 169.624 26.8276 171.234 26.3296C172.845 25.8149 174.629 25.5576 176.588 25.5576C179.859 25.5576 182.424 26.3379 184.283 27.8984C186.143 29.459 187.072 31.6919 187.072 34.5972V47.5713C187.072 47.9199 187.072 48.2603 187.072 48.5923C187.089 48.9243 187.114 49.2563 187.147 49.5884L189.762 49.8623V53H182.714C182.565 52.2695 182.449 51.6138 182.366 51.0327C182.283 50.4517 182.225 49.8706 182.191 49.2896C181.245 50.5015 180.058 51.5142 178.63 52.3276C177.219 53.1245 175.708 53.5229 174.098 53.5229ZM174.82 49.4141C176.447 49.4141 177.933 49.0239 179.278 48.2437C180.623 47.4634 181.585 46.5254 182.167 45.4297V40.5488H177.186C174.928 40.5488 173.235 41.0884 172.106 42.1675C170.977 43.2466 170.413 44.4502 170.413 45.7783C170.413 46.957 170.778 47.8618 171.508 48.4927C172.239 49.1069 173.343 49.4141 174.82 49.4141ZM207.891 53.5229C206.131 53.5229 204.604 53.1909 203.309 52.5269C202.014 51.8462 200.935 50.8501 200.071 49.5386L199.623 53H195.39V18.0122L191.331 17.3149V14.1523H200.295V29.2432C201.142 28.0479 202.188 27.1348 203.433 26.5039C204.695 25.873 206.164 25.5576 207.841 25.5576C210.065 25.5576 211.958 26.1636 213.519 27.3755C215.096 28.5708 216.299 30.2559 217.129 32.4307C217.976 34.6055 218.399 37.1372 218.399 40.0259V40.5488C218.399 43.1387 217.976 45.4048 217.129 47.3472C216.299 49.2896 215.096 50.8086 213.519 51.9043C211.958 52.9834 210.082 53.5229 207.891 53.5229ZM206.646 49.5386C208.953 49.5386 210.663 48.7168 211.775 47.0732C212.904 45.4297 213.469 43.2549 213.469 40.5488V40.0259C213.469 37.9507 213.22 36.1328 212.722 34.5723C212.224 32.9951 211.468 31.7666 210.456 30.8867C209.443 29.9902 208.156 29.542 206.596 29.542C205.085 29.542 203.807 29.9072 202.761 30.6377C201.731 31.3682 200.91 32.3477 200.295 33.5762V45.4795C200.91 46.7246 201.74 47.7124 202.786 48.4429C203.848 49.1733 205.135 49.5386 206.646 49.5386ZM235.283 53.5229C232.793 53.5229 230.643 52.9419 228.833 51.7798C227.041 50.6011 225.654 48.9824 224.675 46.9238C223.695 44.8486 223.206 42.4829 223.206 39.8267V39.2788C223.206 36.6226 223.695 34.2651 224.675 32.2065C225.654 30.1313 227.041 28.5044 228.833 27.3257C230.643 26.147 232.776 25.5576 235.233 25.5576C237.724 25.5576 239.865 26.147 241.658 27.3257C243.468 28.5044 244.862 30.123 245.842 32.1816C246.821 34.2402 247.311 36.606 247.311 39.2788V39.8267C247.311 42.4995 246.821 44.8735 245.842 46.9487C244.862 49.0073 243.476 50.6177 241.683 51.7798C239.89 52.9419 237.757 53.5229 235.283 53.5229ZM235.283 49.688C236.844 49.688 238.147 49.2646 239.193 48.418C240.255 47.5547 241.052 46.3843 241.583 44.9067C242.131 43.4126 242.405 41.7192 242.405 39.8267V39.2788C242.405 37.3862 242.131 35.7012 241.583 34.2236C241.052 32.7295 240.255 31.5591 239.193 30.7124C238.13 29.8491 236.811 29.4175 235.233 29.4175C233.673 29.4175 232.361 29.8491 231.299 30.7124C230.236 31.5591 229.439 32.7295 228.908 34.2236C228.377 35.7012 228.111 37.3862 228.111 39.2788V39.8267C228.111 41.7192 228.377 43.4126 228.908 44.9067C229.439 46.3843 230.236 47.5547 231.299 48.418C232.378 49.2646 233.706 49.688 235.283 49.688ZM262.95 53.5229C260.028 53.5229 257.745 52.585 256.102 50.709C254.458 48.833 253.636 45.9111 253.636 41.9434V29.9155L250.548 29.2183V26.0557H253.636H258.542V41.9932C258.542 44.8652 258.965 46.8408 259.812 47.9199C260.659 48.999 261.979 49.5386 263.771 49.5386C265.515 49.5386 266.951 49.1899 268.08 48.4927C269.225 47.7788 270.088 46.7744 270.669 45.4795V29.9155L267.059 29.2183V26.0557H270.669H275.575V49.165L278.663 49.8623V53H271.167L270.844 49.0156C269.997 50.46 268.901 51.5723 267.557 52.3525C266.229 53.1328 264.693 53.5229 262.95 53.5229ZM291.637 53.4233C289.645 53.4233 288.06 52.8423 286.881 51.6802C285.719 50.5015 285.138 48.6255 285.138 46.0522V29.6914H280.879V26.0557H285.138V19.5562H290.043V26.0557H295.896V29.6914H290.043V46.0522C290.043 47.3472 290.301 48.3018 290.815 48.916C291.33 49.5303 292.019 49.8374 292.882 49.8374C293.463 49.8374 294.111 49.7876 294.825 49.688C295.539 49.5718 296.095 49.4722 296.493 49.3892L297.166 52.6016C296.452 52.8174 295.572 53.0083 294.526 53.1743C293.497 53.3403 292.534 53.4233 291.637 53.4233Z" fill="white"/>
<path d="M327.167 63.3594V60.1968L330.977 59.4995V29.9155L326.918 29.2183V26.0557H335.186L335.634 29.3428C336.53 28.1143 337.618 27.1763 338.896 26.5288C340.191 25.8813 341.685 25.5576 343.378 25.5576C345.603 25.5576 347.504 26.1636 349.081 27.3755C350.658 28.5708 351.862 30.2559 352.692 32.4307C353.522 34.5889 353.937 37.1206 353.937 40.0259V40.5488C353.937 43.1387 353.514 45.4048 352.667 47.3472C351.837 49.2896 350.642 50.8086 349.081 51.9043C347.521 52.9834 345.645 53.5229 343.453 53.5229C341.793 53.5229 340.332 53.249 339.07 52.7012C337.825 52.1367 336.763 51.3066 335.883 50.2109V59.4995L340.166 60.1968V63.3594H327.167ZM341.934 49.688C344.258 49.688 346.018 48.8413 347.213 47.1479C348.409 45.4546 349.006 43.2549 349.006 40.5488V40.0259C349.006 37.9673 348.741 36.1577 348.209 34.5972C347.678 33.02 346.881 31.7832 345.819 30.8867C344.773 29.9902 343.461 29.542 341.884 29.542C340.49 29.542 339.294 29.8574 338.298 30.4883C337.302 31.1191 336.497 31.9824 335.883 33.0781V46.2017C336.497 47.314 337.294 48.1772 338.273 48.7915C339.27 49.3892 340.49 49.688 341.934 49.688ZM357.697 53V49.8623L361.756 49.165V29.9155L357.697 29.2183V26.0557H366.139L366.562 29.4922L366.612 29.9653C367.376 28.5874 368.314 27.5083 369.426 26.728C370.555 25.9478 371.842 25.5576 373.286 25.5576C373.801 25.5576 374.324 25.6074 374.855 25.707C375.403 25.79 375.793 25.873 376.025 25.9561L375.378 30.5132L371.966 30.314C370.671 30.231 369.584 30.5298 368.704 31.2104C367.824 31.8745 367.144 32.771 366.662 33.8999V49.165L370.721 49.8623V53H357.697ZM390.693 53.5229C388.203 53.5229 386.053 52.9419 384.243 51.7798C382.45 50.6011 381.064 48.9824 380.084 46.9238C379.105 44.8486 378.615 42.4829 378.615 39.8267V39.2788C378.615 36.6226 379.105 34.2651 380.084 32.2065C381.064 30.1313 382.45 28.5044 384.243 27.3257C386.053 26.147 388.186 25.5576 390.643 25.5576C393.133 25.5576 395.275 26.147 397.068 27.3257C398.877 28.5044 400.272 30.123 401.251 32.1816C402.231 34.2402 402.721 36.606 402.721 39.2788V39.8267C402.721 42.4995 402.231 44.8735 401.251 46.9487C400.272 49.0073 398.886 50.6177 397.093 51.7798C395.3 52.9419 393.167 53.5229 390.693 53.5229ZM390.693 49.688C392.253 49.688 393.557 49.2646 394.603 48.418C395.665 47.5547 396.462 46.3843 396.993 44.9067C397.541 43.4126 397.815 41.7192 397.815 39.8267V39.2788C397.815 37.3862 397.541 35.7012 396.993 34.2236C396.462 32.7295 395.665 31.5591 394.603 30.7124C393.54 29.8491 392.22 29.4175 390.643 29.4175C389.083 29.4175 387.771 29.8491 386.708 30.7124C385.646 31.5591 384.849 32.7295 384.318 34.2236C383.787 35.7012 383.521 37.3862 383.521 39.2788V39.8267C383.521 41.7192 383.787 43.4126 384.318 44.9067C384.849 46.3843 385.646 47.5547 386.708 48.418C387.788 49.2646 389.116 49.688 390.693 49.688ZM406.058 63.8823C405.526 63.8823 405.045 63.8408 404.613 63.7578C404.182 63.6914 403.733 63.5835 403.269 63.4341L403.592 59.6987C403.825 59.7817 404.215 59.8564 404.763 59.9229C405.327 59.9893 405.759 60.0225 406.058 60.0225C407.037 60.0225 407.809 59.5908 408.374 58.7275C408.955 57.8809 409.245 56.7104 409.245 55.2163V29.9155L405.186 29.2183V26.0557H414.151V55.2163C414.151 57.9888 413.437 60.1221 412.009 61.6162C410.582 63.127 408.598 63.8823 406.058 63.8823ZM408.996 19.4067V14.1523H414.151V19.4067H408.996ZM431.881 53.5229C429.391 53.5229 427.225 52.9585 425.382 51.8296C423.539 50.6841 422.111 49.0986 421.099 47.0732C420.103 45.0479 419.604 42.707 419.604 40.0508V38.9551C419.604 36.3984 420.127 34.1157 421.173 32.1069C422.236 30.0815 423.639 28.4878 425.382 27.3257C427.142 26.147 429.059 25.5576 431.134 25.5576C433.558 25.5576 435.583 26.0557 437.21 27.0518C438.854 28.0479 440.091 29.4507 440.921 31.2603C441.751 33.0532 442.166 35.1699 442.166 37.6104V40.6733H424.685L424.61 40.7979C424.643 42.5244 424.942 44.0601 425.506 45.4048C426.087 46.7329 426.917 47.7788 427.997 48.5425C429.076 49.3062 430.371 49.688 431.881 49.688C433.542 49.688 434.994 49.4556 436.239 48.9907C437.501 48.5093 438.588 47.8535 439.501 47.0234L441.419 50.2109C440.456 51.1406 439.178 51.9292 437.584 52.5767C436.007 53.2075 434.106 53.5229 431.881 53.5229ZM424.834 36.8384H437.26V36.1909C437.26 34.896 437.028 33.7422 436.563 32.7295C436.115 31.7002 435.434 30.895 434.521 30.314C433.625 29.7163 432.496 29.4175 431.134 29.4175C430.039 29.4175 429.042 29.7412 428.146 30.3887C427.25 31.0195 426.511 31.8828 425.93 32.9785C425.349 34.0742 424.967 35.3193 424.784 36.7139L424.834 36.8384ZM459.174 53.5229C456.734 53.5229 454.609 52.9585 452.799 51.8296C450.99 50.6841 449.587 49.0986 448.591 47.0732C447.595 45.0479 447.097 42.707 447.097 40.0508V39.0049C447.097 36.4482 447.578 34.1572 448.541 32.1318C449.504 30.1064 450.89 28.5044 452.7 27.3257C454.509 26.147 456.667 25.5576 459.174 25.5576C461.349 25.5576 463.25 25.9146 464.877 26.6284C466.521 27.3423 467.898 28.3218 469.011 29.5669L469.135 36.0415H465.3L464.454 31.335C463.889 30.7539 463.184 30.2891 462.337 29.9404C461.49 29.5918 460.494 29.4175 459.349 29.4175C457.888 29.4175 456.601 29.8491 455.489 30.7124C454.393 31.5757 453.538 32.7295 452.924 34.1738C452.31 35.6182 452.002 37.2285 452.002 39.0049V40.0508C452.002 42.0098 452.285 43.7114 452.849 45.1558C453.43 46.6001 454.252 47.7207 455.314 48.5176C456.394 49.2979 457.672 49.688 459.149 49.688C460.81 49.688 462.188 49.2314 463.283 48.3184C464.379 47.4053 465.051 46.1519 465.3 44.5581H469.708L469.758 44.7075C469.675 46.2515 469.218 47.6958 468.388 49.0405C467.558 50.3853 466.371 51.4727 464.827 52.3027C463.3 53.1162 461.416 53.5229 459.174 53.5229ZM483.105 53.4233C481.113 53.4233 479.528 52.8423 478.349 51.6802C477.187 50.5015 476.606 48.6255 476.606 46.0522V29.6914H472.348V26.0557H476.606V19.5562H481.512V26.0557H487.364V29.6914H481.512V46.0522C481.512 47.3472 481.769 48.3018 482.284 48.916C482.798 49.5303 483.487 49.8374 484.351 49.8374C484.932 49.8374 485.579 49.7876 486.293 49.688C487.007 49.5718 487.563 49.4722 487.961 49.3892L488.634 52.6016C487.92 52.8174 487.04 53.0083 485.994 53.1743C484.965 53.3403 484.002 53.4233 483.105 53.4233Z" fill="white"/>
<line y1="64.5" x2="134" y2="64.5" stroke="#B48291" stroke-width="5"/>
</svg>
