<svg width="1440" height="1024" viewBox="0 0 1440 1024" fill="none" xmlns="http://www.w3.org/2000/svg">
<g clip-path="url(#clip0_5_184)">
<rect width="1440" height="1024" fill="white"/>
<g filter="url(#filter0_d_5_184)">
<rect width="1440" height="70" fill="#7F2CCB"/>
<path d="M161.203 47V44.2656L163.406 43.7969V25.8438L160.969 25.375V22.625H167.953V43.7969L169.922 44.2656V47H161.203ZM171.969 47V44.4062L173.25 44.1094L173.219 44.0469L169.875 39.5L172.781 36.5156L178.328 43.7812L180.422 44.2656V47H171.969ZM167.469 42.375L165.281 39.8281L172.625 33.1094L172.656 33.0625L170.922 32.8125V30.0938H179.719V32.8438L177.531 33.3906L167.469 42.375ZM189.188 47.3281C187.406 47.3281 186.005 46.7656 184.984 45.6406C183.974 44.5052 183.469 42.7448 183.469 40.3594V33.3125L181.609 32.8438V30.0938H183.469H188.031V40.3906C188.031 41.599 188.24 42.4688 188.656 43C189.083 43.5208 189.724 43.7812 190.578 43.7812C191.255 43.7812 191.854 43.651 192.375 43.3906C192.896 43.1198 193.323 42.7396 193.656 42.25V33.3125L191.641 32.8438V30.0938H193.656H198.219V43.7969L200.25 44.2656V47H194.219L193.906 44.8594C193.375 45.651 192.708 46.2604 191.906 46.6875C191.104 47.1146 190.198 47.3281 189.188 47.3281ZM202.297 47V44.2656L204.484 43.7969V33.3125L202.062 32.8438V30.0938H208.734L208.906 32.1875L208.938 32.5625C209.354 31.6458 209.87 30.9531 210.484 30.4844C211.099 30.0156 211.833 29.7812 212.688 29.7812C212.958 29.7812 213.255 29.8073 213.578 29.8594C213.901 29.901 214.188 29.9583 214.438 30.0312L213.953 34.2344L211.688 34.1094C211.042 34.0781 210.516 34.1875 210.109 34.4375C209.714 34.6875 209.359 35.0469 209.047 35.5156V43.7969L211.234 44.2656V47H202.297ZM222.812 47.3281C221.24 47.3281 220.026 46.8958 219.172 46.0312C218.328 45.1667 217.906 43.7969 217.906 41.9219V33.2969H215.578V30.0938H217.906V25.9531H222.453V30.0938H225.562V33.2969H222.453V41.9062C222.453 42.5625 222.589 43.0312 222.859 43.3125C223.141 43.5938 223.521 43.7344 224 43.7344C224.26 43.7344 224.531 43.7188 224.812 43.6875C225.104 43.6458 225.354 43.6042 225.562 43.5625L225.953 46.8594C225.484 46.9948 224.974 47.1042 224.422 47.1875C223.88 47.2812 223.344 47.3281 222.812 47.3281ZM228.734 39.0312V35.5156H237.547V39.0312H228.734ZM246.922 47.3281C245.578 47.3281 244.422 46.9844 243.453 46.2969C242.495 45.599 241.76 44.6302 241.25 43.3906C240.74 42.1406 240.484 40.6823 240.484 39.0156V38.6875C240.484 36.9062 240.74 35.349 241.25 34.0156C241.771 32.6823 242.51 31.6458 243.469 30.9062C244.427 30.1562 245.573 29.7812 246.906 29.7812C247.833 29.7812 248.646 29.9688 249.344 30.3438C250.042 30.7083 250.646 31.2292 251.156 31.9062V25.8438L248.719 25.375V22.625H251.156H255.719V43.7969L257.906 44.2656V47H251.766L251.422 44.9375C250.891 45.7188 250.255 46.3125 249.516 46.7188C248.786 47.125 247.922 47.3281 246.922 47.3281ZM248.281 43.7812C248.917 43.7812 249.474 43.6458 249.953 43.375C250.432 43.1042 250.833 42.7135 251.156 42.2031V35.0312C250.844 34.4896 250.448 34.0729 249.969 33.7812C249.49 33.4792 248.938 33.3281 248.312 33.3281C247.552 33.3281 246.927 33.5573 246.438 34.0156C245.958 34.4635 245.604 35.0885 245.375 35.8906C245.156 36.6927 245.047 37.625 245.047 38.6875V39.0156C245.047 40.4948 245.297 41.6615 245.797 42.5156C246.297 43.3594 247.125 43.7812 248.281 43.7812ZM266.609 47.3281C265.349 47.3281 264.172 47.2083 263.078 46.9688C261.995 46.7292 260.953 46.3854 259.953 45.9375L259.906 41.1562H263.078L263.688 43.5938C264.042 43.7708 264.427 43.9115 264.844 44.0156C265.271 44.1198 265.755 44.1719 266.297 44.1719C267.318 44.1719 268.036 44.0052 268.453 43.6719C268.87 43.3385 269.078 42.9219 269.078 42.4219C269.078 41.9531 268.854 41.5417 268.406 41.1875C267.969 40.8229 267.089 40.5052 265.766 40.2344C263.766 39.8177 262.292 39.1719 261.344 38.2969C260.396 37.4219 259.922 36.3021 259.922 34.9375C259.922 34 260.156 33.1458 260.625 32.375C261.104 31.6042 261.828 30.9844 262.797 30.5156C263.776 30.0469 265.026 29.8125 266.547 29.8125C267.818 29.8125 268.979 29.9375 270.031 30.1875C271.094 30.4271 271.984 30.7448 272.703 31.1406L272.75 35.7656H269.594L269.109 33.5469C268.828 33.3385 268.495 33.1823 268.109 33.0781C267.734 32.974 267.307 32.9219 266.828 32.9219C266.026 32.9219 265.411 33.0833 264.984 33.4062C264.557 33.7292 264.344 34.1458 264.344 34.6562C264.344 34.9479 264.417 35.2188 264.562 35.4688C264.719 35.7188 265.021 35.9531 265.469 36.1719C265.917 36.3906 266.568 36.599 267.422 36.7969C269.516 37.276 271.042 37.9167 272 38.7188C272.958 39.5104 273.438 40.625 273.438 42.0625C273.438 43.6354 272.865 44.9062 271.719 45.875C270.583 46.8438 268.88 47.3281 266.609 47.3281Z" fill="white"/>
<g clip-path="url(#clip1_5_184)">
<path d="M1272 23C1270.89 23 1269.82 23.162 1268.8 23.444C1272.63 29.377 1266.78 36.94 1260.02 34.572L1260 35C1260 41.627 1265.37 47 1272 47C1278.63 47 1284 41.627 1284 35C1284 28.373 1278.63 23 1272 23Z" fill="#FFFBFC"/>
</g>
<path d="M904.664 44V42.5234L906.574 42.1953V27.5352L904.664 27.207V25.7188H908.883V33.0078C909.32 32.3984 909.855 31.9258 910.488 31.5898C911.121 31.2539 911.824 31.0859 912.598 31.0859C913.957 31.0859 915.012 31.4922 915.762 32.3047C916.512 33.1172 916.887 34.3672 916.887 36.0547V42.1953L918.797 42.5234V44H912.668V42.5234L914.578 42.1953V36.0312C914.578 34.9844 914.352 34.2109 913.898 33.7109C913.453 33.2109 912.785 32.9609 911.895 32.9609C911.262 32.9609 910.684 33.1133 910.16 33.418C909.645 33.7148 909.219 34.1211 908.883 34.6367V42.1953L910.793 42.5234V44H904.664ZM925.922 44.2461C924.75 44.2461 923.738 43.9727 922.887 43.4258C922.043 42.8711 921.391 42.1094 920.93 41.1406C920.469 40.1641 920.238 39.0508 920.238 37.8008V37.543C920.238 36.293 920.469 35.1836 920.93 34.2148C921.391 33.2383 922.043 32.4727 922.887 31.918C923.738 31.3633 924.742 31.0859 925.898 31.0859C927.07 31.0859 928.078 31.3633 928.922 31.918C929.773 32.4727 930.43 33.2344 930.891 34.2031C931.352 35.1719 931.582 36.2852 931.582 37.543V37.8008C931.582 39.0586 931.352 40.1758 930.891 41.1523C930.43 42.1211 929.777 42.8789 928.934 43.4258C928.09 43.9727 927.086 44.2461 925.922 44.2461ZM925.922 42.4414C926.656 42.4414 927.27 42.2422 927.762 41.8438C928.262 41.4375 928.637 40.8867 928.887 40.1914C929.145 39.4883 929.273 38.6914 929.273 37.8008V37.543C929.273 36.6523 929.145 35.8594 928.887 35.1641C928.637 34.4609 928.262 33.9102 927.762 33.5117C927.262 33.1055 926.641 32.9023 925.898 32.9023C925.164 32.9023 924.547 33.1055 924.047 33.5117C923.547 33.9102 923.172 34.4609 922.922 35.1641C922.672 35.8594 922.547 36.6523 922.547 37.543V37.8008C922.547 38.6914 922.672 39.4883 922.922 40.1914C923.172 40.8867 923.547 41.4375 924.047 41.8438C924.555 42.2422 925.18 42.4414 925.922 42.4414ZM933.363 44V42.5234L935.273 42.1953V33.1367L933.363 32.8086V31.3203H937.348L937.5 32.9727C937.906 32.3711 938.43 31.9062 939.07 31.5781C939.711 31.25 940.453 31.0859 941.297 31.0859C942.141 31.0859 942.863 31.2812 943.465 31.6719C944.074 32.0625 944.531 32.6484 944.836 33.4297C945.234 32.7109 945.762 32.1406 946.418 31.7188C947.074 31.2969 947.84 31.0859 948.715 31.0859C950.012 31.0859 951.035 31.5312 951.785 32.4219C952.535 33.3047 952.91 34.6367 952.91 36.418V42.1953L954.82 42.5234V44H948.68V42.5234L950.59 42.1953V36.3945C950.59 35.1445 950.375 34.2617 949.945 33.7461C949.516 33.2227 948.879 32.9609 948.035 32.9609C947.23 32.9609 946.582 33.2461 946.09 33.8164C945.605 34.3789 945.324 35.0898 945.246 35.9492V42.1953L947.156 42.5234V44H941.027V42.5234L942.938 42.1953V36.3945C942.938 35.207 942.715 34.3398 942.27 33.793C941.832 33.2383 941.195 32.9609 940.359 32.9609C939.656 32.9609 939.078 33.1055 938.625 33.3945C938.172 33.6836 937.824 34.0898 937.582 34.6133V42.1953L939.492 42.5234V44H933.363ZM962.133 44.2461C960.961 44.2461 959.941 43.9805 959.074 43.4492C958.207 42.9102 957.535 42.1641 957.059 41.2109C956.59 40.2578 956.355 39.1562 956.355 37.9062V37.3906C956.355 36.1875 956.602 35.1133 957.094 34.168C957.594 33.2148 958.254 32.4648 959.074 31.918C959.902 31.3633 960.805 31.0859 961.781 31.0859C962.922 31.0859 963.875 31.3203 964.641 31.7891C965.414 32.2578 965.996 32.918 966.387 33.7695C966.777 34.6133 966.973 35.6094 966.973 36.7578V38.1992H958.746L958.711 38.2578C958.727 39.0703 958.867 39.793 959.133 40.4258C959.406 41.0508 959.797 41.543 960.305 41.9023C960.812 42.2617 961.422 42.4414 962.133 42.4414C962.914 42.4414 963.598 42.332 964.184 42.1133C964.777 41.8867 965.289 41.5781 965.719 41.1875L966.621 42.6875C966.168 43.125 965.566 43.4961 964.816 43.8008C964.074 44.0977 963.18 44.2461 962.133 44.2461ZM958.816 36.3945H964.664V36.0898C964.664 35.4805 964.555 34.9375 964.336 34.4609C964.125 33.9766 963.805 33.5977 963.375 33.3242C962.953 33.043 962.422 32.9023 961.781 32.9023C961.266 32.9023 960.797 33.0547 960.375 33.3594C959.953 33.6562 959.605 34.0625 959.332 34.5781C959.059 35.0938 958.879 35.6797 958.793 36.3359L958.816 36.3945Z" fill="white"/>
<path d="M993.223 44.2461C991.902 44.2461 990.898 43.9258 990.211 43.2852C989.523 42.6367 989.18 41.7266 989.18 40.5547C989.18 39.75 989.398 39.0508 989.836 38.457C990.281 37.8555 990.922 37.3906 991.758 37.0625C992.594 36.7266 993.594 36.5586 994.758 36.5586H997.02V35.3164C997.02 34.5508 996.785 33.957 996.316 33.5352C995.855 33.1133 995.203 32.9023 994.359 32.9023C993.828 32.9023 993.367 32.9688 992.977 33.1016C992.586 33.2266 992.23 33.4023 991.91 33.6289L991.664 35.3984H989.883V32.4922C990.453 32.0312 991.117 31.6836 991.875 31.4492C992.633 31.207 993.473 31.0859 994.395 31.0859C995.934 31.0859 997.141 31.4531 998.016 32.1875C998.891 32.9219 999.328 33.9727 999.328 35.3398V41.4453C999.328 41.6094 999.328 41.7695 999.328 41.9258C999.336 42.082 999.348 42.2383 999.363 42.3945L1000.59 42.5234V44H997.277C997.207 43.6562 997.152 43.3477 997.113 43.0742C997.074 42.8008 997.047 42.5273 997.031 42.2539C996.586 42.8242 996.027 43.3008 995.355 43.6836C994.691 44.0586 993.98 44.2461 993.223 44.2461ZM993.562 42.3125C994.328 42.3125 995.027 42.1289 995.66 41.7617C996.293 41.3945 996.746 40.9531 997.02 40.4375V38.1406H994.676C993.613 38.1406 992.816 38.3945 992.285 38.9023C991.754 39.4102 991.488 39.9766 991.488 40.6016C991.488 41.1562 991.66 41.582 992.004 41.8789C992.348 42.168 992.867 42.3125 993.562 42.3125ZM1009.12 44.2461C1008.3 44.2461 1007.58 44.0898 1006.97 43.7773C1006.36 43.457 1005.85 42.9883 1005.45 42.3711L1005.23 44H1003.24V27.5352L1001.33 27.207V25.7188H1005.55V32.8203C1005.95 32.2578 1006.44 31.8281 1007.03 31.5312C1007.62 31.2344 1008.31 31.0859 1009.1 31.0859C1010.15 31.0859 1011.04 31.3711 1011.77 31.9414C1012.52 32.5039 1013.08 33.2969 1013.47 34.3203C1013.87 35.3438 1014.07 36.5352 1014.07 37.8945V38.1406C1014.07 39.3594 1013.87 40.4258 1013.47 41.3398C1013.08 42.2539 1012.52 42.9688 1011.77 43.4844C1011.04 43.9922 1010.16 44.2461 1009.12 44.2461ZM1008.54 42.3711C1009.62 42.3711 1010.43 41.9844 1010.95 41.2109C1011.48 40.4375 1011.75 39.4141 1011.75 38.1406V37.8945C1011.75 36.918 1011.63 36.0625 1011.4 35.3281C1011.16 34.5859 1010.81 34.0078 1010.33 33.5938C1009.86 33.1719 1009.25 32.9609 1008.52 32.9609C1007.8 32.9609 1007.2 33.1328 1006.71 33.4766C1006.23 33.8203 1005.84 34.2812 1005.55 34.8594V40.4609C1005.84 41.0469 1006.23 41.5117 1006.72 41.8555C1007.22 42.1992 1007.83 42.3711 1008.54 42.3711ZM1022.02 44.2461C1020.84 44.2461 1019.83 43.9727 1018.98 43.4258C1018.14 42.8711 1017.48 42.1094 1017.02 41.1406C1016.56 40.1641 1016.33 39.0508 1016.33 37.8008V37.543C1016.33 36.293 1016.56 35.1836 1017.02 34.2148C1017.48 33.2383 1018.14 32.4727 1018.98 31.918C1019.83 31.3633 1020.84 31.0859 1021.99 31.0859C1023.16 31.0859 1024.17 31.3633 1025.02 31.918C1025.87 32.4727 1026.52 33.2344 1026.98 34.2031C1027.45 35.1719 1027.68 36.2852 1027.68 37.543V37.8008C1027.68 39.0586 1027.45 40.1758 1026.98 41.1523C1026.52 42.1211 1025.87 42.8789 1025.03 43.4258C1024.18 43.9727 1023.18 44.2461 1022.02 44.2461ZM1022.02 42.4414C1022.75 42.4414 1023.36 42.2422 1023.86 41.8438C1024.36 41.4375 1024.73 40.8867 1024.98 40.1914C1025.24 39.4883 1025.37 38.6914 1025.37 37.8008V37.543C1025.37 36.6523 1025.24 35.8594 1024.98 35.1641C1024.73 34.4609 1024.36 33.9102 1023.86 33.5117C1023.36 33.1055 1022.73 32.9023 1021.99 32.9023C1021.26 32.9023 1020.64 33.1055 1020.14 33.5117C1019.64 33.9102 1019.27 34.4609 1019.02 35.1641C1018.77 35.8594 1018.64 36.6523 1018.64 37.543V37.8008C1018.64 38.6914 1018.77 39.4883 1019.02 40.1914C1019.27 40.8867 1019.64 41.4375 1020.14 41.8438C1020.65 42.2422 1021.27 42.4414 1022.02 42.4414ZM1035.04 44.2461C1033.66 44.2461 1032.59 43.8047 1031.81 42.9219C1031.04 42.0391 1030.65 40.6641 1030.65 38.7969V33.1367L1029.2 32.8086V31.3203H1030.65H1032.96V38.8203C1032.96 40.1719 1033.16 41.1016 1033.56 41.6094C1033.96 42.1172 1034.58 42.3711 1035.42 42.3711C1036.24 42.3711 1036.92 42.207 1037.45 41.8789C1037.99 41.543 1038.39 41.0703 1038.67 40.4609V33.1367L1036.97 32.8086V31.3203H1038.67H1040.98V42.1953L1042.43 42.5234V44H1038.9L1038.75 42.125C1038.35 42.8047 1037.84 43.3281 1037.2 43.6953C1036.58 44.0625 1035.86 44.2461 1035.04 44.2461ZM1048.54 44.1992C1047.6 44.1992 1046.85 43.9258 1046.3 43.3789C1045.75 42.8242 1045.48 41.9414 1045.48 40.7305V33.0312H1043.47V31.3203H1045.48V28.2617H1047.79V31.3203H1050.54V33.0312H1047.79V40.7305C1047.79 41.3398 1047.91 41.7891 1048.15 42.0781C1048.39 42.3672 1048.71 42.5117 1049.12 42.5117C1049.39 42.5117 1049.7 42.4883 1050.04 42.4414C1050.37 42.3867 1050.63 42.3398 1050.82 42.3008L1051.14 43.8125C1050.8 43.9141 1050.39 44.0039 1049.89 44.082C1049.41 44.1602 1048.96 44.1992 1048.54 44.1992Z" fill="white"/>
<path d="M1078.49 44.2461C1077.64 44.2461 1076.84 44.1602 1076.1 43.9883C1075.36 43.8164 1074.57 43.5508 1073.73 43.1914L1073.71 40.1797H1075.46L1075.89 41.9961C1076.33 42.1758 1076.75 42.3086 1077.16 42.3945C1077.57 42.4727 1078.02 42.5117 1078.49 42.5117C1079.43 42.5117 1080.1 42.332 1080.51 41.9727C1080.91 41.6133 1081.12 41.168 1081.12 40.6367C1081.12 40.1367 1080.91 39.7148 1080.5 39.3711C1080.09 39.0195 1079.35 38.7227 1078.27 38.4805C1076.74 38.1289 1075.61 37.6602 1074.88 37.0742C1074.16 36.4805 1073.8 35.6914 1073.8 34.707C1073.8 34.0195 1074 33.4062 1074.4 32.8672C1074.8 32.3203 1075.36 31.8867 1076.07 31.5664C1076.78 31.2461 1077.61 31.0859 1078.55 31.0859C1079.51 31.0859 1080.33 31.1953 1081.01 31.4141C1081.7 31.6328 1082.3 31.9258 1082.8 32.293L1082.92 35.1875H1081.19L1080.81 33.5C1080.54 33.2969 1080.21 33.1406 1079.84 33.0312C1079.46 32.9219 1079.04 32.8672 1078.55 32.8672C1077.83 32.8672 1077.25 33.0352 1076.79 33.3711C1076.35 33.707 1076.12 34.1289 1076.12 34.6367C1076.12 34.9336 1076.19 35.1914 1076.31 35.4102C1076.45 35.6289 1076.7 35.8281 1077.06 36.0078C1077.43 36.1797 1077.97 36.3516 1078.68 36.5234C1080.45 36.9375 1081.68 37.4648 1082.37 38.1055C1083.07 38.7461 1083.43 39.5352 1083.43 40.4727C1083.43 41.543 1083.03 42.4414 1082.23 43.168C1081.44 43.8867 1080.2 44.2461 1078.49 44.2461ZM1085.22 44V42.5234L1087.13 42.1953V27.5352L1085.22 27.207V25.7188H1089.44V42.1953L1091.35 42.5234V44H1085.22ZM1093.36 44V42.5234L1094.65 42.3711L1094.62 42.3242L1090.95 37.5898L1092.14 35.75L1097.27 42.2422L1099.09 42.5234V44H1093.36ZM1089.27 40.332L1088.42 38.5156L1093.93 33.0312L1093.98 32.9609L1092.62 32.8086V31.3203H1098.09V32.8086L1096.46 33.1133L1089.27 40.332ZM1100.35 44V42.5234L1102.26 42.1953V33.1367L1100.35 32.8086V31.3203H1104.57V42.1953L1106.48 42.5234V44H1100.35ZM1102.14 28.1914V25.7188H1104.57V28.1914H1102.14ZM1107.95 44V42.5234L1109.86 42.1953V27.5352L1107.95 27.207V25.7188H1112.17V42.1953L1114.08 42.5234V44H1107.95ZM1115.62 44V42.5234L1117.53 42.1953V27.5352L1115.62 27.207V25.7188H1119.84V42.1953L1121.75 42.5234V44H1115.62ZM1128.53 44.2461C1127.68 44.2461 1126.88 44.1602 1126.14 43.9883C1125.4 43.8164 1124.61 43.5508 1123.77 43.1914L1123.75 40.1797H1125.5L1125.93 41.9961C1126.37 42.1758 1126.79 42.3086 1127.2 42.3945C1127.61 42.4727 1128.05 42.5117 1128.53 42.5117C1129.47 42.5117 1130.14 42.332 1130.55 41.9727C1130.95 41.6133 1131.16 41.168 1131.16 40.6367C1131.16 40.1367 1130.95 39.7148 1130.54 39.3711C1130.13 39.0195 1129.39 38.7227 1128.31 38.4805C1126.78 38.1289 1125.65 37.6602 1124.92 37.0742C1124.2 36.4805 1123.84 35.6914 1123.84 34.707C1123.84 34.0195 1124.04 33.4062 1124.44 32.8672C1124.84 32.3203 1125.39 31.8867 1126.11 31.5664C1126.82 31.2461 1127.64 31.0859 1128.59 31.0859C1129.55 31.0859 1130.37 31.1953 1131.05 31.4141C1131.74 31.6328 1132.34 31.9258 1132.84 32.293L1132.96 35.1875H1131.23L1130.85 33.5C1130.58 33.2969 1130.25 33.1406 1129.88 33.0312C1129.5 32.9219 1129.07 32.8672 1128.59 32.8672C1127.87 32.8672 1127.29 33.0352 1126.83 33.3711C1126.39 33.707 1126.16 34.1289 1126.16 34.6367C1126.16 34.9336 1126.23 35.1914 1126.35 35.4102C1126.48 35.6289 1126.73 35.8281 1127.1 36.0078C1127.47 36.1797 1128.01 36.3516 1128.72 36.5234C1130.48 36.9375 1131.71 37.4648 1132.41 38.1055C1133.11 38.7461 1133.46 39.5352 1133.46 40.4727C1133.46 41.543 1133.07 42.4414 1132.27 43.168C1131.48 43.8867 1130.23 44.2461 1128.53 44.2461Z" fill="white"/>
<path d="M1155.97 48.875V47.3867L1157.77 47.0586V33.1367L1155.86 32.8086V31.3203H1159.75L1159.96 32.8672C1160.38 32.2891 1160.89 31.8477 1161.49 31.543C1162.1 31.2383 1162.8 31.0859 1163.6 31.0859C1164.65 31.0859 1165.54 31.3711 1166.29 31.9414C1167.03 32.5039 1167.59 33.2969 1167.98 34.3203C1168.38 35.3359 1168.57 36.5273 1168.57 37.8945V38.1406C1168.57 39.3594 1168.37 40.4258 1167.97 41.3398C1167.58 42.2539 1167.02 42.9688 1166.29 43.4844C1165.55 43.9922 1164.67 44.2461 1163.64 44.2461C1162.86 44.2461 1162.17 44.1172 1161.57 43.8594C1160.99 43.5938 1160.49 43.2031 1160.07 42.6875V47.0586L1162.09 47.3867V48.875H1155.97ZM1162.92 42.4414C1164.02 42.4414 1164.84 42.043 1165.41 41.2461C1165.97 40.4492 1166.25 39.4141 1166.25 38.1406V37.8945C1166.25 36.9258 1166.12 36.0742 1165.88 35.3398C1165.62 34.5977 1165.25 34.0156 1164.75 33.5938C1164.26 33.1719 1163.64 32.9609 1162.9 32.9609C1162.24 32.9609 1161.68 33.1094 1161.21 33.4062C1160.74 33.7031 1160.36 34.1094 1160.07 34.625V40.8008C1160.36 41.3242 1160.74 41.7305 1161.2 42.0195C1161.67 42.3008 1162.24 42.4414 1162.92 42.4414ZM1170.34 44V42.5234L1172.25 42.1953V33.1367L1170.34 32.8086V31.3203H1174.31L1174.51 32.9375L1174.54 33.1602C1174.89 32.5117 1175.34 32.0039 1175.86 31.6367C1176.39 31.2695 1177 31.0859 1177.68 31.0859C1177.92 31.0859 1178.16 31.1094 1178.41 31.1562C1178.67 31.1953 1178.86 31.2344 1178.96 31.2734L1178.66 33.418L1177.05 33.3242C1176.45 33.2852 1175.93 33.4258 1175.52 33.7461C1175.11 34.0586 1174.79 34.4805 1174.56 35.0117V42.1953L1176.47 42.5234V44H1170.34ZM1185.87 44.2461C1184.7 44.2461 1183.68 43.9727 1182.83 43.4258C1181.99 42.8711 1181.34 42.1094 1180.88 41.1406C1180.41 40.1641 1180.18 39.0508 1180.18 37.8008V37.543C1180.18 36.293 1180.41 35.1836 1180.88 34.2148C1181.34 33.2383 1181.99 32.4727 1182.83 31.918C1183.68 31.3633 1184.69 31.0859 1185.84 31.0859C1187.02 31.0859 1188.02 31.3633 1188.87 31.918C1189.72 32.4727 1190.38 33.2344 1190.84 34.2031C1191.3 35.1719 1191.53 36.2852 1191.53 37.543V37.8008C1191.53 39.0586 1191.3 40.1758 1190.84 41.1523C1190.38 42.1211 1189.72 42.8789 1188.88 43.4258C1188.04 43.9727 1187.03 44.2461 1185.87 44.2461ZM1185.87 42.4414C1186.6 42.4414 1187.21 42.2422 1187.71 41.8438C1188.21 41.4375 1188.58 40.8867 1188.83 40.1914C1189.09 39.4883 1189.22 38.6914 1189.22 37.8008V37.543C1189.22 36.6523 1189.09 35.8594 1188.83 35.1641C1188.58 34.4609 1188.21 33.9102 1187.71 33.5117C1187.21 33.1055 1186.59 32.9023 1185.84 32.9023C1185.11 32.9023 1184.49 33.1055 1183.99 33.5117C1183.49 33.9102 1183.12 34.4609 1182.87 35.1641C1182.62 35.8594 1182.49 36.6523 1182.49 37.543V37.8008C1182.49 38.6914 1182.62 39.4883 1182.87 40.1914C1183.12 40.8867 1183.49 41.4375 1183.99 41.8438C1184.5 42.2422 1185.12 42.4414 1185.87 42.4414ZM1193.1 49.1211C1192.85 49.1211 1192.62 49.1016 1192.42 49.0625C1192.21 49.0312 1192 48.9805 1191.79 48.9102L1191.94 47.1523C1192.05 47.1914 1192.23 47.2266 1192.49 47.2578C1192.75 47.2891 1192.96 47.3047 1193.1 47.3047C1193.56 47.3047 1193.92 47.1016 1194.19 46.6953C1194.46 46.2969 1194.6 45.7461 1194.6 45.043V33.1367L1192.69 32.8086V31.3203H1196.91V45.043C1196.91 46.3477 1196.57 47.3516 1195.9 48.0547C1195.23 48.7656 1194.29 49.1211 1193.1 49.1211ZM1194.48 28.1914V25.7188H1196.91V28.1914H1194.48ZM1205.25 44.2461C1204.08 44.2461 1203.06 43.9805 1202.19 43.4492C1201.32 42.9102 1200.65 42.1641 1200.18 41.2109C1199.71 40.2578 1199.47 39.1562 1199.47 37.9062V37.3906C1199.47 36.1875 1199.72 35.1133 1200.21 34.168C1200.71 33.2148 1201.37 32.4648 1202.19 31.918C1203.02 31.3633 1203.92 31.0859 1204.9 31.0859C1206.04 31.0859 1206.99 31.3203 1207.76 31.7891C1208.53 32.2578 1209.11 32.918 1209.5 33.7695C1209.89 34.6133 1210.09 35.6094 1210.09 36.7578V38.1992H1201.86L1201.83 38.2578C1201.84 39.0703 1201.98 39.793 1202.25 40.4258C1202.52 41.0508 1202.91 41.543 1203.42 41.9023C1203.93 42.2617 1204.54 42.4414 1205.25 42.4414C1206.03 42.4414 1206.71 42.332 1207.3 42.1133C1207.89 41.8867 1208.41 41.5781 1208.84 41.1875L1209.74 42.6875C1209.29 43.125 1208.68 43.4961 1207.93 43.8008C1207.19 44.0977 1206.3 44.2461 1205.25 44.2461ZM1201.93 36.3945H1207.78V36.0898C1207.78 35.4805 1207.67 34.9375 1207.45 34.4609C1207.24 33.9766 1206.92 33.5977 1206.49 33.3242C1206.07 33.043 1205.54 32.9023 1204.9 32.9023C1204.38 32.9023 1203.91 33.0547 1203.49 33.3594C1203.07 33.6562 1202.72 34.0625 1202.45 34.5781C1202.18 35.0938 1202 35.6797 1201.91 36.3359L1201.93 36.3945ZM1218.09 44.2461C1216.95 44.2461 1215.95 43.9805 1215.09 43.4492C1214.24 42.9102 1213.58 42.1641 1213.11 41.2109C1212.64 40.2578 1212.41 39.1562 1212.41 37.9062V37.4141C1212.41 36.2109 1212.64 35.1328 1213.09 34.1797C1213.54 33.2266 1214.2 32.4727 1215.05 31.918C1215.9 31.3633 1216.91 31.0859 1218.09 31.0859C1219.12 31.0859 1220.01 31.2539 1220.78 31.5898C1221.55 31.9258 1222.2 32.3867 1222.72 32.9727L1222.78 36.0195H1220.98L1220.58 33.8047C1220.31 33.5312 1219.98 33.3125 1219.58 33.1484C1219.18 32.9844 1218.71 32.9023 1218.18 32.9023C1217.49 32.9023 1216.88 33.1055 1216.36 33.5117C1215.84 33.918 1215.44 34.4609 1215.15 35.1406C1214.86 35.8203 1214.72 36.5781 1214.72 37.4141V37.9062C1214.72 38.8281 1214.85 39.6289 1215.12 40.3086C1215.39 40.9883 1215.78 41.5156 1216.28 41.8906C1216.79 42.2578 1217.39 42.4414 1218.08 42.4414C1218.86 42.4414 1219.51 42.2266 1220.03 41.7969C1220.54 41.3672 1220.86 40.7773 1220.98 40.0273H1223.05L1223.07 40.0977C1223.04 40.8242 1222.82 41.5039 1222.43 42.1367C1222.04 42.7695 1221.48 43.2812 1220.75 43.6719C1220.04 44.0547 1219.15 44.2461 1218.09 44.2461ZM1229.36 44.1992C1228.42 44.1992 1227.67 43.9258 1227.12 43.3789C1226.57 42.8242 1226.3 41.9414 1226.3 40.7305V33.0312H1224.29V31.3203H1226.3V28.2617H1228.61V31.3203H1231.36V33.0312H1228.61V40.7305C1228.61 41.3398 1228.73 41.7891 1228.97 42.0781C1229.21 42.3672 1229.54 42.5117 1229.94 42.5117C1230.21 42.5117 1230.52 42.4883 1230.86 42.4414C1231.19 42.3867 1231.45 42.3398 1231.64 42.3008L1231.96 43.8125C1231.62 43.9141 1231.21 44.0039 1230.71 44.082C1230.23 44.1602 1229.78 44.1992 1229.36 44.1992ZM1238.57 44.2461C1237.71 44.2461 1236.92 44.1602 1236.18 43.9883C1235.43 43.8164 1234.64 43.5508 1233.81 43.1914L1233.79 40.1797H1235.53L1235.96 41.9961C1236.4 42.1758 1236.82 42.3086 1237.23 42.3945C1237.64 42.4727 1238.09 42.5117 1238.57 42.5117C1239.5 42.5117 1240.18 42.332 1240.58 41.9727C1240.99 41.6133 1241.19 41.168 1241.19 40.6367C1241.19 40.1367 1240.98 39.7148 1240.57 39.3711C1240.16 39.0195 1239.42 38.7227 1238.34 38.4805C1236.81 38.1289 1235.68 37.6602 1234.96 37.0742C1234.24 36.4805 1233.88 35.6914 1233.88 34.707C1233.88 34.0195 1234.08 33.4062 1234.48 32.8672C1234.88 32.3203 1235.43 31.8867 1236.14 31.5664C1236.85 31.2461 1237.68 31.0859 1238.62 31.0859C1239.59 31.0859 1240.41 31.1953 1241.09 31.4141C1241.77 31.6328 1242.37 31.9258 1242.88 32.293L1243 35.1875H1241.26L1240.89 33.5C1240.61 33.2969 1240.29 33.1406 1239.91 33.0312C1239.54 32.9219 1239.11 32.8672 1238.62 32.8672C1237.91 32.8672 1237.32 33.0352 1236.87 33.3711C1236.42 33.707 1236.2 34.1289 1236.2 34.6367C1236.2 34.9336 1236.26 35.1914 1236.39 35.4102C1236.52 35.6289 1236.77 35.8281 1237.14 36.0078C1237.5 36.1797 1238.04 36.3516 1238.75 36.5234C1240.52 36.9375 1241.75 37.4648 1242.45 38.1055C1243.15 38.7461 1243.5 39.5352 1243.5 40.4727C1243.5 41.543 1243.1 42.4414 1242.3 43.168C1241.52 43.8867 1240.27 44.2461 1238.57 44.2461Z" fill="white"/>
<path d="M904 51H968" stroke="#B48291" stroke-width="5"/>
</g>
<path d="M169.062 403V401.77L170.654 401.496V390.295L169.062 390.021V388.781H174.17V390.021L172.578 390.295V395.207H179.375V390.295L177.783 390.021V388.781H179.375H181.299H182.891V390.021L181.299 390.295V401.496L182.891 401.77V403H177.783V401.77L179.375 401.496V396.721H172.578V401.496L174.17 401.77V403H169.062ZM184.336 403V401.77L185.928 401.496V393.947L184.336 393.674V392.434H187.852V401.496L189.443 401.77V403H184.336ZM185.83 389.826V387.766H187.852V389.826H185.83ZM191.465 403V401.027H193.389V403H191.465ZM200.645 403V401.77L202.236 401.496V390.295L200.645 390.021V388.781H205.752V390.021L204.16 390.295V401.496L205.752 401.77V403H200.645ZM215.674 403.205C214.574 403.205 213.737 402.938 213.164 402.404C212.591 401.864 212.305 401.105 212.305 400.129C212.305 399.458 212.487 398.876 212.852 398.381C213.223 397.88 213.757 397.492 214.453 397.219C215.15 396.939 215.983 396.799 216.953 396.799H218.838V395.764C218.838 395.126 218.643 394.631 218.252 394.279C217.868 393.928 217.324 393.752 216.621 393.752C216.178 393.752 215.794 393.807 215.469 393.918C215.143 394.022 214.847 394.169 214.58 394.357L214.375 395.832H212.891V393.41C213.366 393.026 213.919 392.736 214.551 392.541C215.182 392.339 215.882 392.238 216.65 392.238C217.933 392.238 218.939 392.544 219.668 393.156C220.397 393.768 220.762 394.644 220.762 395.783V400.871C220.762 401.008 220.762 401.141 220.762 401.271C220.768 401.402 220.778 401.532 220.791 401.662L221.816 401.77V403H219.053C218.994 402.714 218.949 402.456 218.916 402.229C218.883 402.001 218.861 401.773 218.848 401.545C218.477 402.02 218.011 402.417 217.451 402.736C216.898 403.049 216.305 403.205 215.674 403.205ZM215.957 401.594C216.595 401.594 217.178 401.441 217.705 401.135C218.232 400.829 218.61 400.461 218.838 400.031V398.117H216.885C215.999 398.117 215.335 398.329 214.893 398.752C214.45 399.175 214.229 399.647 214.229 400.168C214.229 400.63 214.372 400.985 214.658 401.232C214.945 401.473 215.378 401.594 215.957 401.594ZM223.311 403V401.77L224.902 401.496V393.947L223.311 393.674V392.434H226.631L226.758 393.811C227.096 393.309 227.533 392.922 228.066 392.648C228.6 392.375 229.219 392.238 229.922 392.238C230.625 392.238 231.227 392.401 231.729 392.727C232.236 393.052 232.617 393.54 232.871 394.191C233.203 393.592 233.643 393.117 234.189 392.766C234.736 392.414 235.374 392.238 236.104 392.238C237.184 392.238 238.037 392.609 238.662 393.352C239.287 394.087 239.6 395.197 239.6 396.682V401.496L241.191 401.77V403H236.074V401.77L237.666 401.496V396.662C237.666 395.62 237.487 394.885 237.129 394.455C236.771 394.019 236.24 393.801 235.537 393.801C234.867 393.801 234.326 394.038 233.916 394.514C233.512 394.982 233.278 395.575 233.213 396.291V401.496L234.805 401.77V403H229.697V401.77L231.289 401.496V396.662C231.289 395.673 231.104 394.95 230.732 394.494C230.368 394.032 229.837 393.801 229.141 393.801C228.555 393.801 228.073 393.921 227.695 394.162C227.318 394.403 227.028 394.742 226.826 395.178V401.496L228.418 401.77V403H223.311ZM243.32 403V401.027H245.244V403H243.32Z" fill="black"/>
<path d="M224.742 502V495.164L228.805 494.578L246.891 445.125H258.57L276.539 494.578L280.602 495.164V502H261.227V495.164L265.172 494.461L262.672 486.648H242.672L240.172 494.461L244.117 495.164V502H224.742ZM245.367 478.25H259.977L253.336 458.758L252.789 457.039H252.555L251.969 458.875L245.367 478.25ZM284.039 502V495.164L289.547 493.992V449.109L283.453 447.938V441.062H300.953V493.992L306.461 495.164V502H284.039ZM309.586 502V495.164L315.094 493.992V449.109L309 447.938V441.062H326.5V493.992L332.008 495.164V502H309.586ZM355.211 502.82C351.174 502.82 347.646 501.935 344.625 500.164C341.604 498.367 339.26 495.906 337.594 492.781C335.953 489.656 335.133 486.089 335.133 482.078V480.516C335.133 476.323 335.914 472.612 337.477 469.383C339.039 466.128 341.24 463.576 344.078 461.727C346.943 459.852 350.315 458.927 354.195 458.953C358.023 458.953 361.24 459.708 363.844 461.219C366.448 462.729 368.427 464.904 369.781 467.742C371.135 470.581 371.812 474.018 371.812 478.055V484.266H346.969L346.891 484.5C347.047 486.349 347.503 488.003 348.258 489.461C349.039 490.893 350.133 492.026 351.539 492.859C352.945 493.667 354.651 494.07 356.656 494.07C358.74 494.07 360.68 493.81 362.477 493.289C364.299 492.742 366.07 491.948 367.789 490.906L370.875 497.938C369.13 499.344 366.93 500.516 364.273 501.453C361.643 502.365 358.622 502.82 355.211 502.82ZM347.047 476.727H361.148V475.711C361.148 473.992 360.914 472.521 360.445 471.297C360.003 470.047 359.273 469.083 358.258 468.406C357.268 467.729 355.979 467.391 354.391 467.391C352.88 467.391 351.604 467.794 350.562 468.602C349.521 469.383 348.701 470.464 348.102 471.844C347.529 473.224 347.138 474.786 346.93 476.531L347.047 476.727ZM376.656 502V495.164L382.125 493.992V467.781L376.07 466.609V459.734H392.75L393.258 465.789C394.664 463.628 396.396 461.948 398.453 460.75C400.536 459.552 402.906 458.953 405.562 458.953C409.755 458.953 413.036 460.294 415.406 462.977C417.776 465.659 418.961 469.865 418.961 475.594V493.992L424.43 495.164V502H402.633V495.164L407.516 493.992V475.633C407.516 472.794 406.956 470.789 405.836 469.617C404.716 468.419 403.049 467.82 400.836 467.82C399.195 467.82 397.763 468.172 396.539 468.875C395.341 469.552 394.339 470.529 393.531 471.805V493.992L398.141 495.164V502H376.656ZM462.594 488.055L456.695 481.297L484.547 452.586L484.625 452.469L479 452V445.125H502.398V452L497.047 453.055L462.594 488.055ZM447.516 502V495.164L453.57 493.992V453.172L447.516 452V445.125H470.758V452L464.977 453.172V493.992L470.758 495.164V502H447.516ZM480.25 502V495.164L485.562 494.695H485.602L471.148 474.773L478.688 467.234L498.844 494.188L504.43 495.164V502H480.25ZM525.172 502.82C520.719 502.82 517.216 501.414 514.664 498.602C512.138 495.763 510.875 491.362 510.875 485.398V467.781L506.227 466.609V459.734H510.875H522.281V485.477C522.281 488.497 522.802 490.672 523.844 492C524.911 493.302 526.513 493.953 528.648 493.953C530.341 493.953 531.839 493.628 533.141 492.977C534.443 492.299 535.51 491.349 536.344 490.125V467.781L531.305 466.609V459.734H536.344H547.75V493.992L552.828 495.164V502H537.75L536.969 496.648C535.641 498.628 533.974 500.151 531.969 501.219C529.964 502.286 527.698 502.82 525.172 502.82ZM557.945 502V495.164L563.414 493.992V467.781L557.359 466.609V459.734H574.039L574.469 464.969L574.547 465.906C575.589 463.615 576.878 461.883 578.414 460.711C579.951 459.539 581.786 458.953 583.922 458.953C584.599 458.953 585.341 459.018 586.148 459.148C586.956 459.253 587.672 459.396 588.297 459.578L587.086 470.086L581.422 469.773C579.807 469.695 578.492 469.969 577.477 470.594C576.487 471.219 575.602 472.117 574.82 473.289V493.992L580.289 495.164V502H557.945ZM609.234 502.82C605.302 502.82 602.268 501.74 600.133 499.578C598.023 497.417 596.969 493.992 596.969 489.305V467.742H591.148V459.734H596.969V449.383H608.336V459.734H616.109V467.742H608.336V489.266C608.336 490.906 608.674 492.078 609.352 492.781C610.055 493.484 611.005 493.836 612.203 493.836C612.854 493.836 613.531 493.797 614.234 493.719C614.964 493.615 615.589 493.51 616.109 493.406L617.086 501.648C615.914 501.987 614.638 502.26 613.258 502.469C611.904 502.703 610.562 502.82 609.234 502.82ZM640.719 502V495.164L646.852 493.875V453.328L640.719 452V445.125H646.852H665.68C670.758 445.125 675.237 446.323 679.117 448.719C682.997 451.089 686.018 454.383 688.18 458.602C690.367 462.794 691.461 467.612 691.461 473.055V474.109C691.461 479.5 690.38 484.305 688.219 488.523C686.083 492.716 683.089 496.01 679.234 498.406C675.38 500.802 670.914 502 665.836 502H640.719ZM658.258 493.289H665.25C668.401 493.289 671.07 492.469 673.258 490.828C675.445 489.161 677.112 486.883 678.258 483.992C679.43 481.102 680.016 477.807 680.016 474.109V473.016C680.016 469.266 679.43 465.958 678.258 463.094C677.112 460.203 675.445 457.951 673.258 456.336C671.07 454.695 668.401 453.875 665.25 453.875H658.258V493.289ZM694.508 502V492H705.875V502H694.508Z" fill="black"/>
<path d="M577.928 545V543.77L579.52 543.496V532.295L577.928 532.021V530.781H588.621V534.199H587.078L586.863 532.275H581.443V537.197H586.648V538.711H581.443V543.496L583.035 543.77V545H577.928ZM594.559 545.205C593.413 545.205 592.518 544.837 591.873 544.102C591.229 543.366 590.906 542.22 590.906 540.664V535.947L589.695 535.674V534.434H590.906H592.83V540.684C592.83 541.81 592.996 542.585 593.328 543.008C593.66 543.431 594.178 543.643 594.881 543.643C595.564 543.643 596.128 543.506 596.57 543.232C597.02 542.952 597.358 542.559 597.586 542.051V535.947L596.17 535.674V534.434H597.586H599.51V543.496L600.721 543.77V545H597.781L597.654 543.438C597.322 544.004 596.893 544.44 596.365 544.746C595.844 545.052 595.242 545.205 594.559 545.205ZM601.98 545V543.77L603.572 543.496V531.279L601.98 531.006V529.766H605.496V543.496L607.088 543.77V545H601.98ZM608.367 545V543.77L609.959 543.496V531.279L608.367 531.006V529.766H611.883V543.496L613.475 543.77V545H608.367ZM630.008 545.205C629.142 545.205 628.309 545.078 627.508 544.824C626.707 544.57 625.942 544.18 625.213 543.652V540.615H626.707L627.029 542.852C627.452 543.112 627.911 543.314 628.406 543.457C628.901 543.6 629.435 543.672 630.008 543.672C630.659 543.672 631.209 543.574 631.658 543.379C632.114 543.177 632.462 542.9 632.703 542.549C632.944 542.197 633.064 541.787 633.064 541.318C633.064 540.882 632.96 540.498 632.752 540.166C632.544 539.834 632.199 539.544 631.717 539.297C631.242 539.043 630.59 538.822 629.764 538.633C628.787 538.405 627.96 538.102 627.283 537.725C626.613 537.34 626.102 536.878 625.75 536.338C625.405 535.791 625.232 535.166 625.232 534.463C625.232 533.721 625.428 533.057 625.818 532.471C626.215 531.885 626.766 531.423 627.469 531.084C628.172 530.745 628.992 530.576 629.93 530.576C630.926 530.576 631.805 530.729 632.566 531.035C633.335 531.335 633.966 531.699 634.461 532.129V534.971H632.967L632.645 532.939C632.352 532.705 631.987 532.51 631.551 532.354C631.115 532.197 630.574 532.119 629.93 532.119C629.383 532.119 628.901 532.217 628.484 532.412C628.068 532.601 627.742 532.868 627.508 533.213C627.273 533.558 627.156 533.965 627.156 534.434C627.156 534.844 627.26 535.202 627.469 535.508C627.684 535.814 628.029 536.084 628.504 536.318C628.986 536.546 629.627 536.761 630.428 536.963C631.925 537.334 633.058 537.884 633.826 538.613C634.601 539.336 634.988 540.231 634.988 541.299C634.988 542.061 634.783 542.738 634.373 543.33C633.963 543.916 633.383 544.375 632.635 544.707C631.893 545.039 631.017 545.205 630.008 545.205ZM640.32 545.166C639.539 545.166 638.917 544.938 638.455 544.482C637.999 544.02 637.771 543.285 637.771 542.275V535.859H636.102V534.434H637.771V531.885H639.695V534.434H641.99V535.859H639.695V542.275C639.695 542.783 639.796 543.158 639.998 543.398C640.2 543.639 640.47 543.76 640.809 543.76C641.036 543.76 641.29 543.74 641.57 543.701C641.85 543.656 642.068 543.617 642.225 543.584L642.488 544.844C642.208 544.928 641.863 545.003 641.453 545.068C641.049 545.133 640.672 545.166 640.32 545.166ZM647.137 545.205C646.036 545.205 645.2 544.938 644.627 544.404C644.054 543.864 643.768 543.105 643.768 542.129C643.768 541.458 643.95 540.876 644.314 540.381C644.686 539.88 645.219 539.492 645.916 539.219C646.613 538.939 647.446 538.799 648.416 538.799H650.301V537.764C650.301 537.126 650.105 536.631 649.715 536.279C649.331 535.928 648.787 535.752 648.084 535.752C647.641 535.752 647.257 535.807 646.932 535.918C646.606 536.022 646.31 536.169 646.043 536.357L645.838 537.832H644.354V535.41C644.829 535.026 645.382 534.736 646.014 534.541C646.645 534.339 647.345 534.238 648.113 534.238C649.396 534.238 650.402 534.544 651.131 535.156C651.86 535.768 652.225 536.644 652.225 537.783V542.871C652.225 543.008 652.225 543.141 652.225 543.271C652.231 543.402 652.241 543.532 652.254 543.662L653.279 543.77V545H650.516C650.457 544.714 650.411 544.456 650.379 544.229C650.346 544.001 650.324 543.773 650.311 543.545C649.939 544.02 649.474 544.417 648.914 544.736C648.361 545.049 647.768 545.205 647.137 545.205ZM647.42 543.594C648.058 543.594 648.641 543.441 649.168 543.135C649.695 542.829 650.073 542.461 650.301 542.031V540.117H648.348C647.462 540.117 646.798 540.329 646.355 540.752C645.913 541.175 645.691 541.647 645.691 542.168C645.691 542.63 645.835 542.985 646.121 543.232C646.408 543.473 646.84 543.594 647.42 543.594ZM659.549 545.205C658.592 545.205 657.758 544.984 657.049 544.541C656.339 544.092 655.789 543.47 655.398 542.676C655.008 541.882 654.812 540.964 654.812 539.922V539.512C654.812 538.509 655.001 537.611 655.379 536.816C655.757 536.022 656.3 535.394 657.01 534.932C657.719 534.469 658.566 534.238 659.549 534.238C660.402 534.238 661.147 534.378 661.785 534.658C662.43 534.938 662.97 535.322 663.406 535.811L663.455 538.35H661.951L661.619 536.504C661.398 536.276 661.121 536.094 660.789 535.957C660.457 535.82 660.066 535.752 659.617 535.752C659.044 535.752 658.54 535.921 658.104 536.26C657.674 536.598 657.339 537.051 657.098 537.617C656.857 538.184 656.736 538.815 656.736 539.512V539.922C656.736 540.69 656.847 541.357 657.068 541.924C657.296 542.49 657.618 542.93 658.035 543.242C658.458 543.548 658.96 543.701 659.539 543.701C660.19 543.701 660.73 543.522 661.16 543.164C661.59 542.806 661.854 542.314 661.951 541.689H663.68L663.699 541.748C663.667 542.354 663.488 542.92 663.162 543.447C662.837 543.975 662.371 544.401 661.766 544.727C661.167 545.046 660.428 545.205 659.549 545.205ZM665.105 545V543.77L666.697 543.496V531.279L665.105 531.006V529.766H668.621V543.496L670.213 543.77V545H665.105ZM671.893 545V543.77L672.967 543.643L672.938 543.604L669.881 539.658L670.877 538.125L675.145 543.535L676.668 543.77V545H671.893ZM668.484 541.943L667.771 540.43L672.361 535.859L672.41 535.801L671.277 535.674V534.434H675.828V535.674L674.471 535.928L668.484 541.943ZM687.264 545L683.943 532.168L682.742 532.021V530.781H687.352V532.021L685.877 532.246L687.732 540.068L688.162 541.895L688.221 541.904L688.787 540.078L691.648 530.781H693.338L696.229 540.078L696.785 542.012H696.844L697.352 540.078L699.188 532.246L697.596 532.021V530.781H702.127V532.021L701.004 532.168L697.82 545H695.994L692.908 535.156L692.518 533.721H692.459L692.078 535.156L688.982 545H687.264ZM707.693 545.205C706.717 545.205 705.867 544.984 705.145 544.541C704.422 544.092 703.862 543.47 703.465 542.676C703.074 541.882 702.879 540.964 702.879 539.922V539.492C702.879 538.49 703.084 537.594 703.494 536.807C703.911 536.012 704.461 535.387 705.145 534.932C705.835 534.469 706.587 534.238 707.4 534.238C708.351 534.238 709.145 534.434 709.783 534.824C710.428 535.215 710.913 535.765 711.238 536.475C711.564 537.178 711.727 538.008 711.727 538.965V540.166H704.871L704.842 540.215C704.855 540.892 704.972 541.494 705.193 542.021C705.421 542.542 705.747 542.952 706.17 543.252C706.593 543.551 707.101 543.701 707.693 543.701C708.344 543.701 708.914 543.61 709.402 543.428C709.897 543.239 710.324 542.982 710.682 542.656L711.434 543.906C711.056 544.271 710.555 544.58 709.93 544.834C709.311 545.081 708.566 545.205 707.693 545.205ZM704.93 538.662H709.803V538.408C709.803 537.9 709.712 537.448 709.529 537.051C709.354 536.647 709.087 536.331 708.729 536.104C708.377 535.869 707.934 535.752 707.4 535.752C706.971 535.752 706.58 535.879 706.229 536.133C705.877 536.38 705.587 536.719 705.359 537.148C705.132 537.578 704.982 538.066 704.91 538.613L704.93 538.662ZM718.846 545.205C718.156 545.205 717.557 545.075 717.049 544.814C716.541 544.548 716.118 544.157 715.779 543.643L715.604 545H713.943V531.279L712.352 531.006V529.766H715.867V535.684C716.199 535.215 716.609 534.857 717.098 534.609C717.592 534.362 718.169 534.238 718.826 534.238C719.699 534.238 720.441 534.476 721.053 534.951C721.671 535.42 722.143 536.081 722.469 536.934C722.801 537.786 722.967 538.779 722.967 539.912V540.117C722.967 541.133 722.801 542.021 722.469 542.783C722.143 543.545 721.671 544.141 721.053 544.57C720.441 544.993 719.705 545.205 718.846 545.205ZM718.357 543.643C719.262 543.643 719.933 543.32 720.369 542.676C720.812 542.031 721.033 541.178 721.033 540.117V539.912C721.033 539.098 720.936 538.385 720.74 537.773C720.545 537.155 720.249 536.673 719.852 536.328C719.454 535.977 718.95 535.801 718.338 535.801C717.745 535.801 717.244 535.944 716.834 536.23C716.43 536.517 716.108 536.901 715.867 537.383V542.051C716.108 542.539 716.434 542.926 716.844 543.213C717.26 543.499 717.765 543.643 718.357 543.643ZM729.471 545V543.77L731.062 543.496V532.295L729.471 532.021V530.781H731.062H735.037C736.294 530.781 737.387 531.081 738.318 531.68C739.256 532.279 739.985 533.102 740.506 534.15C741.027 535.199 741.287 536.396 741.287 537.744V538.047C741.287 539.362 741.036 540.547 740.535 541.602C740.034 542.65 739.321 543.48 738.396 544.092C737.479 544.697 736.391 545 735.135 545H729.471ZM732.986 543.496H735.037C735.936 543.496 736.707 543.252 737.352 542.764C737.996 542.269 738.491 541.611 738.836 540.791C739.188 539.964 739.363 539.049 739.363 538.047V537.725C739.363 536.689 739.188 535.765 738.836 534.951C738.491 534.131 737.996 533.483 737.352 533.008C736.707 532.533 735.936 532.295 735.037 532.295H732.986V543.496ZM747.459 545.205C746.482 545.205 745.633 544.984 744.91 544.541C744.188 544.092 743.628 543.47 743.23 542.676C742.84 541.882 742.645 540.964 742.645 539.922V539.492C742.645 538.49 742.85 537.594 743.26 536.807C743.676 536.012 744.227 535.387 744.91 534.932C745.6 534.469 746.352 534.238 747.166 534.238C748.117 534.238 748.911 534.434 749.549 534.824C750.193 535.215 750.678 535.765 751.004 536.475C751.329 537.178 751.492 538.008 751.492 538.965V540.166H744.637L744.607 540.215C744.62 540.892 744.738 541.494 744.959 542.021C745.187 542.542 745.512 542.952 745.936 543.252C746.359 543.551 746.867 543.701 747.459 543.701C748.11 543.701 748.68 543.61 749.168 543.428C749.663 543.239 750.089 542.982 750.447 542.656L751.199 543.906C750.822 544.271 750.32 544.58 749.695 544.834C749.077 545.081 748.331 545.205 747.459 545.205ZM744.695 538.662H749.568V538.408C749.568 537.9 749.477 537.448 749.295 537.051C749.119 536.647 748.852 536.331 748.494 536.104C748.143 535.869 747.7 535.752 747.166 535.752C746.736 535.752 746.346 535.879 745.994 536.133C745.643 536.38 745.353 536.719 745.125 537.148C744.897 537.578 744.747 538.066 744.676 538.613L744.695 538.662ZM757.146 545L753.387 535.82L752.293 535.674V534.434H756.727V535.674L755.35 535.869L757.693 541.885L757.967 542.734H758.025L758.338 541.885L760.516 535.869L759.1 535.674V534.434H763.523V535.674L762.41 535.82L758.836 545H757.146ZM769.1 545.205C768.123 545.205 767.273 544.984 766.551 544.541C765.828 544.092 765.268 543.47 764.871 542.676C764.48 541.882 764.285 540.964 764.285 539.922V539.492C764.285 538.49 764.49 537.594 764.9 536.807C765.317 536.012 765.867 535.387 766.551 534.932C767.241 534.469 767.993 534.238 768.807 534.238C769.757 534.238 770.551 534.434 771.189 534.824C771.834 535.215 772.319 535.765 772.645 536.475C772.97 537.178 773.133 538.008 773.133 538.965V540.166H766.277L766.248 540.215C766.261 540.892 766.378 541.494 766.6 542.021C766.827 542.542 767.153 542.952 767.576 543.252C767.999 543.551 768.507 543.701 769.1 543.701C769.751 543.701 770.32 543.61 770.809 543.428C771.303 543.239 771.73 542.982 772.088 542.656L772.84 543.906C772.462 544.271 771.961 544.58 771.336 544.834C770.717 545.081 769.972 545.205 769.1 545.205ZM766.336 538.662H771.209V538.408C771.209 537.9 771.118 537.448 770.936 537.051C770.76 536.647 770.493 536.331 770.135 536.104C769.783 535.869 769.34 535.752 768.807 535.752C768.377 535.752 767.986 535.879 767.635 536.133C767.283 536.38 766.993 536.719 766.766 537.148C766.538 537.578 766.388 538.066 766.316 538.613L766.336 538.662ZM774.539 545V543.77L776.131 543.496V531.279L774.539 531.006V529.766H778.055V543.496L779.646 543.77V545H774.539ZM785.604 545.205C784.627 545.205 783.784 544.977 783.074 544.521C782.371 544.059 781.827 543.424 781.443 542.617C781.059 541.803 780.867 540.876 780.867 539.834V539.619C780.867 538.577 781.059 537.653 781.443 536.846C781.827 536.032 782.371 535.394 783.074 534.932C783.784 534.469 784.62 534.238 785.584 534.238C786.561 534.238 787.4 534.469 788.104 534.932C788.813 535.394 789.36 536.029 789.744 536.836C790.128 537.643 790.32 538.571 790.32 539.619V539.834C790.32 540.882 790.128 541.813 789.744 542.627C789.36 543.434 788.816 544.066 788.113 544.521C787.41 544.977 786.574 545.205 785.604 545.205ZM785.604 543.701C786.215 543.701 786.727 543.535 787.137 543.203C787.553 542.865 787.866 542.406 788.074 541.826C788.289 541.24 788.396 540.576 788.396 539.834V539.619C788.396 538.877 788.289 538.216 788.074 537.637C787.866 537.051 787.553 536.592 787.137 536.26C786.72 535.921 786.202 535.752 785.584 535.752C784.972 535.752 784.458 535.921 784.041 536.26C783.624 536.592 783.312 537.051 783.104 537.637C782.895 538.216 782.791 538.877 782.791 539.619V539.834C782.791 540.576 782.895 541.24 783.104 541.826C783.312 542.406 783.624 542.865 784.041 543.203C784.464 543.535 784.985 543.701 785.604 543.701ZM791.512 549.062V547.822L793.006 547.549V535.947L791.414 535.674V534.434H794.656L794.832 535.723C795.184 535.241 795.61 534.873 796.111 534.619C796.619 534.365 797.205 534.238 797.869 534.238C798.742 534.238 799.487 534.476 800.105 534.951C800.724 535.42 801.196 536.081 801.521 536.934C801.847 537.78 802.01 538.773 802.01 539.912V540.117C802.01 541.133 801.844 542.021 801.512 542.783C801.186 543.545 800.717 544.141 800.105 544.57C799.493 544.993 798.758 545.205 797.898 545.205C797.247 545.205 796.674 545.098 796.18 544.883C795.691 544.661 795.275 544.336 794.93 543.906V547.549L796.609 547.822V549.062H791.512ZM797.303 543.701C798.214 543.701 798.904 543.369 799.373 542.705C799.842 542.041 800.076 541.178 800.076 540.117V539.912C800.076 539.105 799.972 538.395 799.764 537.783C799.555 537.165 799.243 536.68 798.826 536.328C798.416 535.977 797.902 535.801 797.283 535.801C796.736 535.801 796.268 535.924 795.877 536.172C795.486 536.419 795.171 536.758 794.93 537.188V542.334C795.171 542.77 795.483 543.109 795.867 543.35C796.258 543.584 796.736 543.701 797.303 543.701ZM808.709 545.205C807.732 545.205 806.883 544.984 806.16 544.541C805.438 544.092 804.878 543.47 804.48 542.676C804.09 541.882 803.895 540.964 803.895 539.922V539.492C803.895 538.49 804.1 537.594 804.51 536.807C804.926 536.012 805.477 535.387 806.16 534.932C806.85 534.469 807.602 534.238 808.416 534.238C809.367 534.238 810.161 534.434 810.799 534.824C811.443 535.215 811.928 535.765 812.254 536.475C812.579 537.178 812.742 538.008 812.742 538.965V540.166H805.887L805.857 540.215C805.87 540.892 805.988 541.494 806.209 542.021C806.437 542.542 806.762 542.952 807.186 543.252C807.609 543.551 808.117 543.701 808.709 543.701C809.36 543.701 809.93 543.61 810.418 543.428C810.913 543.239 811.339 542.982 811.697 542.656L812.449 543.906C812.072 544.271 811.57 544.58 810.945 544.834C810.327 545.081 809.581 545.205 808.709 545.205ZM805.945 538.662H810.818V538.408C810.818 537.9 810.727 537.448 810.545 537.051C810.369 536.647 810.102 536.331 809.744 536.104C809.393 535.869 808.95 535.752 808.416 535.752C807.986 535.752 807.596 535.879 807.244 536.133C806.893 536.38 806.603 536.719 806.375 537.148C806.147 537.578 805.997 538.066 805.926 538.613L805.945 538.662ZM814.227 545V543.77L815.818 543.496V535.947L814.227 535.674V534.434H817.537L817.703 535.781L817.723 535.967C818.022 535.426 818.39 535.003 818.826 534.697C819.269 534.391 819.773 534.238 820.34 534.238C820.542 534.238 820.747 534.258 820.955 534.297C821.17 534.329 821.323 534.362 821.414 534.395L821.16 536.182L819.822 536.104C819.314 536.071 818.888 536.188 818.543 536.455C818.198 536.715 817.931 537.067 817.742 537.51V543.496L819.334 543.77V545H814.227Z" fill="black"/>
<path d="M182.5 547.5H152.492C151.117 547.5 150 548.633 150 550.023V579.977C150 581.367 151.117 582.5 152.492 582.5H182.5C183.875 582.5 185 581.367 185 579.977V550.023C185 548.633 183.875 547.5 182.5 547.5ZM160.578 577.5H155.391V560.797H160.586V577.5H160.578ZM157.984 558.516C156.32 558.516 154.977 557.164 154.977 555.508C154.977 553.852 156.32 552.5 157.984 552.5C159.641 552.5 160.992 553.852 160.992 555.508C160.992 557.172 159.648 558.516 157.984 558.516ZM180.023 577.5H174.836V569.375C174.836 567.438 174.797 564.945 172.141 564.945C169.438 564.945 169.023 567.055 169.023 569.234V577.5H163.836V560.797H168.812V563.078H168.883C169.578 561.766 171.273 560.383 173.797 560.383C179.047 560.383 180.023 563.844 180.023 568.344V577.5Z" fill="#7F2CCB"/>
<path d="M223 512H710" stroke="#7F2CCB" stroke-width="5"/>
<path d="M201.75 547.5H229.25C231.32 547.5 233 549.18 233 551.25V578.75C233 580.82 231.32 582.5 229.25 582.5H201.75C199.68 582.5 198 580.82 198 578.75V551.25C198 549.18 199.68 547.5 201.75 547.5ZM211.336 577.477C211.992 577.594 212.234 577.188 212.234 576.852C212.234 576.43 212.219 574.273 212.219 572.531C212.219 571.312 212.625 570.539 213.102 570.133C210.211 569.813 207.164 569.414 207.164 564.422C207.164 563 207.672 562.289 208.5 561.375C208.367 561.039 207.922 559.656 208.633 557.859C209.719 557.523 212.203 559.258 212.203 559.258C213.234 558.969 214.352 558.82 215.453 558.82C216.555 558.82 217.672 558.969 218.703 559.258C218.703 559.258 221.188 557.523 222.273 557.859C222.984 559.648 222.547 561.031 222.406 561.375C223.234 562.289 223.625 563 223.625 564.422C223.625 569.391 220.711 569.813 217.82 570.133C218.195 570.469 218.531 571.047 218.648 571.875C219.391 572.211 221.289 572.789 222.422 570.789C223.133 569.555 224.414 569.453 224.414 569.453C225.68 569.438 224.5 570.25 224.5 570.25C223.656 570.641 223.062 572.141 223.062 572.141C222.305 574.461 218.68 573.68 218.68 573.68C218.68 574.766 218.664 576.531 218.664 576.852C218.664 577.188 218.898 577.594 219.562 577.477C224.719 575.75 228.328 570.844 228.328 565.109C228.328 557.937 222.844 552.492 215.672 552.492C208.5 552.492 202.688 557.937 202.688 565.109C202.68 570.844 206.18 575.758 211.336 577.477ZM219 572.703C219.148 572.734 219.289 572.672 219.305 572.57C219.32 572.453 219.219 572.352 219.07 572.32C218.922 572.305 218.781 572.367 218.766 572.469C218.742 572.57 218.844 572.672 219 572.703ZM219.742 572.633C219.742 572.734 219.859 572.82 220.016 572.82C220.188 572.836 220.305 572.75 220.305 572.633C220.305 572.531 220.188 572.445 220.031 572.445C219.883 572.43 219.742 572.516 219.742 572.633ZM220.812 572.547C220.844 572.648 221 572.695 221.133 572.648C221.281 572.617 221.383 572.5 221.352 572.398C221.32 572.297 221.164 572.25 221.031 572.281C220.875 572.328 220.773 572.445 220.812 572.547ZM221.773 572.125C221.844 572.211 221.992 572.195 222.109 572.078C222.227 571.977 222.258 571.828 222.18 571.758C222.109 571.672 221.961 571.688 221.844 571.805C221.742 571.906 221.703 572.062 221.773 572.125ZM222.484 571.414C222.555 571.461 222.688 571.414 222.773 571.297C222.859 571.18 222.859 571.047 222.773 570.992C222.688 570.922 222.555 570.977 222.484 571.094C222.398 571.211 222.398 571.352 222.484 571.414ZM222.992 570.656C223.062 570.727 223.18 570.688 223.266 570.609C223.352 570.508 223.367 570.391 223.297 570.336C223.227 570.266 223.109 570.305 223.023 570.383C222.938 570.484 222.922 570.602 222.992 570.656ZM223.516 570.078C223.547 570.148 223.648 570.164 223.734 570.109C223.836 570.062 223.883 569.977 223.852 569.906C223.82 569.859 223.734 569.836 223.633 569.875C223.531 569.93 223.484 570.016 223.516 570.078Z" fill="#7F2CCB"/>
<g clip-path="url(#clip2_5_184)">
<path d="M1056.73 785.952C1055.99 785.953 1055.29 785.668 1054.76 785.159C1054.23 784.65 1053.93 783.956 1053.9 783.223L1066.48 607.515H1083.96L1059.55 783.223C1059.53 783.956 1059.22 784.65 1058.69 785.159C1058.16 785.668 1057.46 785.953 1056.73 785.952Z" fill="#FFFBFC" stroke="#7F2CCB" stroke-width="5" stroke-miterlimit="10" stroke-linecap="round"/>
<path d="M1165.36 785.952C1164.63 785.953 1163.92 785.668 1163.4 785.159C1162.87 784.65 1162.56 783.956 1162.54 783.223L1138.13 607.515H1155.61L1168.19 783.223C1168.16 783.956 1167.85 784.65 1167.33 785.159C1166.8 785.668 1166.1 785.953 1165.36 785.952Z" fill="#FFFBFC" stroke="#7F2CCB" stroke-width="5" stroke-miterlimit="10" stroke-linecap="round"/>
<path d="M1215.75 785.952C1215.02 785.953 1214.31 785.668 1213.79 785.159C1213.26 784.65 1212.95 783.956 1212.93 783.223L1188.52 607.515H1206L1218.57 783.223C1218.55 783.956 1218.24 784.65 1217.72 785.159C1217.19 785.668 1216.48 785.953 1215.75 785.952Z" fill="#FFFBFC" stroke="#7F2CCB" stroke-width="5" stroke-miterlimit="10" stroke-linecap="round"/>
<path d="M1222.21 569.84L1217.16 590.065H1200.57L1205.62 569.84H1222.21Z" fill="#FFFBFC" stroke="#7F2CCB" stroke-width="5" stroke-miterlimit="10" stroke-linecap="round"/>
<path d="M1157.43 569.84L1152.39 590.065H1135.79L1140.84 569.84H1157.43Z" fill="#FFFBFC" stroke="#7F2CCB" stroke-width="5" stroke-miterlimit="10" stroke-linecap="round"/>
<path d="M1219.41 588.676H1045.94C1040.22 588.676 1035.59 593.305 1035.59 599.017C1035.59 604.728 1040.22 609.358 1045.94 609.358H1219.41C1225.13 609.358 1229.77 604.728 1229.77 599.017C1229.77 593.305 1225.13 588.676 1219.41 588.676Z" fill="#B48291"/>
<path d="M1290.78 427.73L1259.32 553.79C1258.08 558.767 1255.2 563.186 1251.16 566.343C1247.11 569.501 1242.12 571.217 1236.99 571.216H1122.34C1116 571.216 1111.58 561.635 1113.77 552.598L1145.1 423.149C1146.59 416.999 1150.45 412.917 1154.78 412.917H1279.33C1284.39 412.917 1292.5 420.559 1290.78 427.73Z" fill="#B48291"/>
<path d="M928.971 755.536C928.971 758.732 938.868 768.516 935.535 784.872C935.535 784.872 911.118 784.909 899.14 784.983C884.902 785.07 854.618 785.07 854.618 785.07C854.618 785.07 851.678 772.035 867.275 770.23C882.872 768.424 902.644 751.958 902.644 751.958L928.971 755.536Z" fill="#3F3732"/>
<path d="M936.585 786.368C922.346 786.456 854.618 786.456 854.618 786.456" stroke="#7F2CCB" stroke-width="7" stroke-miterlimit="10" stroke-linecap="round"/>
<path d="M903.106 751.958C904.65 747.659 906.874 733.617 906.874 733.617L931.962 735.815C931.962 735.815 927.801 745.202 928.509 755.075C928.749 758.404 901.41 756.672 903.106 751.958Z" fill="#CD9F67"/>
<path d="M1156.29 576.744C1128.4 588.131 997.633 580.941 997.633 580.941C997.633 580.941 994.957 683.271 945.784 736.244C945.784 736.244 911.867 735.108 902.57 732.712C902.57 732.712 928.273 579.565 946.648 549.482C956.356 533.556 1065.66 509.253 1089.22 507.208C1096.24 511.878 1103.69 515.868 1111.47 519.121C1132.9 528.148 1154.87 531.381 1171.39 532.336C1173.93 547.131 1174.33 569.383 1156.29 576.744Z" fill="#361852"/>
<path d="M947.924 755.536C947.924 758.732 957.822 768.516 954.489 784.872C954.489 784.872 930.071 784.909 918.093 784.983C903.855 785.07 873.571 785.07 873.571 785.07C873.571 785.07 870.631 772.035 886.229 770.23C901.826 768.424 921.598 751.958 921.598 751.958L947.924 755.536Z" fill="black"/>
<path d="M955.538 786.368C941.3 786.456 873.571 786.456 873.571 786.456" stroke="#7F2CCB" stroke-width="7" stroke-miterlimit="10" stroke-linecap="round"/>
<path d="M922.06 751.958C923.604 747.659 925.827 733.617 925.827 733.617L954.614 736.738C954.614 736.738 949.39 741.522 947.462 755.075C946.991 758.376 920.363 756.672 922.06 751.958Z" fill="#E0A053"/>
<path d="M1176.48 588.782C1148.59 600.183 1017.82 592.979 1017.82 592.979C1017.82 592.979 1020.52 682.098 958.751 736.9C958.751 736.9 927.843 734.679 918.533 732.282C918.533 732.282 958.122 587.586 966.822 561.52C971.584 547.251 1093.02 519.74 1111.46 519.121C1141.87 531.939 1173.36 533.043 1188.86 532.627C1191.63 542.001 1200.75 578.877 1176.48 588.782Z" fill="#7F2CCB"/>
<path d="M1096.74 468.582C1065.1 474.885 989.09 472.183 957.225 465.788C955.497 467.123 953.681 468.34 951.789 469.431C947.628 471.819 939.617 473.749 937.717 473.642C935.817 473.536 924.159 471.749 924.159 471.749C924.159 471.749 923.743 470.433 925.448 468.697C927.154 466.961 939.659 468.341 935.087 464.541C933.053 462.842 922.924 466.665 918.519 470.904C914.113 475.143 912.047 471.786 912.047 471.786C912.047 471.786 916.263 463.936 917.775 462.514C919.286 461.092 929.331 455.061 936.136 454.142C941.064 453.477 952.917 454.392 959.19 455.902C982.438 450.388 1027.04 443.36 1058.8 443.614C1063.02 426.068 1068.15 404.587 1069.51 398.233L1092.09 413.009L1096.74 468.582Z" fill="#CD9F67"/>
<path d="M1069.51 398.233L1068.09 404.536C1068.09 404.536 1073.94 419.335 1092.81 424.22L1092.09 413L1069.51 398.233Z" fill="#C68E4A"/>
<path d="M1207.02 437.672C1207.02 437.672 1205.34 437.565 1202.49 437.274C1199.26 461.143 1196.41 481.192 1196.41 485.593C1196.41 497.418 1198.72 532.05 1198.72 532.05C1198.72 532.05 1136.38 539.037 1088.83 506.935C1088.83 506.935 1099.85 492.117 1094.13 445.424C1090.33 414.362 1092.09 413 1092.09 413C1092.09 413 1080.44 406.932 1063.92 393.86C1063.92 393.86 1072.49 351.517 1086.17 343.21C1099.85 334.903 1121.08 331.029 1135.18 325.728C1149.27 320.427 1170.7 314.922 1170.7 314.922C1176.41 319.609 1203.56 332.866 1210.3 340.818C1219.9 349.605 1233.05 384.454 1207.02 437.672Z" fill="#CEEFF7"/>
<path d="M1152.21 423.745C1152.21 423.745 1158.04 414.182 1165.07 379.319" stroke="#745455" stroke-width="5" stroke-miterlimit="10"/>
<path d="M1091.57 412.118C1090.91 403.686 1091.8 387.908 1092.9 379.139" stroke="#745455" stroke-width="5" stroke-miterlimit="10"/>
<path d="M1202.48 437.275C1202.48 437.275 1177.77 499.649 1166.59 500.683C1130.15 504.049 1069.26 469.39 1056.1 468.984L1050.33 468.799C1047.1 470.697 1042.98 472.313 1039.5 471.292C1032.48 469.242 1026.86 464.177 1022.21 466.351C1017.56 468.526 1012.19 472.701 1009.25 472.354C1003.07 471.611 999.515 468.337 999.515 468.337C999.515 468.337 1003.36 464.154 1007.23 460.178C1004.48 461.254 1000.3 464.209 998.16 465.225C994.924 466.753 993.26 464.02 993.26 464.02C993.26 464.02 1000.48 457.652 1002.97 456.142C1005.38 454.687 1012.13 453.159 1015.55 453.085C1019.67 452.531 1042.32 449.442 1053.98 450.67C1067.36 450.176 1094.2 451.132 1141.49 460.012L1155.03 425.297C1155.03 425.297 1175.61 434.435 1202.48 437.275Z" fill="#E0A053"/>
<path d="M1202.48 437.279C1202.48 437.279 1200.25 442.917 1196.82 450.832C1185.58 447.516 1167.36 440.474 1154.29 427.199L1155.03 425.287C1155.03 425.287 1175.62 434.435 1202.48 437.279Z" fill="#C68E4A"/>
<path d="M1145.98 273.323C1145.98 273.323 1147.83 299.643 1170.68 314.922C1170.68 314.922 1158.64 341.243 1130.88 343.062C1103.11 344.881 1124.05 329.306 1124.05 329.306C1124.05 329.306 1116.8 305.364 1115.57 299.657L1145.98 273.323Z" fill="#E0A053"/>
<path d="M1145.9 286.991C1144.51 299.029 1133.88 316.285 1120.69 318.053C1118.62 311.011 1116.24 302.714 1115.58 299.657L1144.45 274.643L1145.35 276.426C1145.35 276.426 1146.2 284.451 1145.9 286.991Z" fill="#C68E4A"/>
<path d="M1143.81 275.207C1143.81 275.207 1144.24 283.458 1143.13 285.762C1138.02 296.383 1122 308.573 1109.55 308.573C1099.91 308.573 1088.62 279.238 1087.6 268.428C1086.58 257.618 1088.01 240.492 1114.14 238.455C1140.26 236.419 1142.1 263.533 1142.1 263.533L1143.81 275.207Z" fill="#E0A053"/>
<path d="M1067.59 257.42C1067.59 257.42 1062.74 247.778 1070.86 240.699C1080.44 232.337 1089.22 236.211 1094.13 230.91C1099.04 225.609 1109.3 214.287 1124.55 216.222C1138.23 217.958 1142.22 227.442 1142.22 227.442C1142.22 227.442 1150.68 223.882 1158.02 233.445C1165.37 243.008 1147.62 282.853 1147.62 282.853C1147.62 282.853 1142.85 266.978 1142.1 263.561C1140.44 255.91 1125.37 257.715 1126.59 242.759C1126.59 242.759 1122.51 252.954 1106.99 252.761C1102.37 252.705 1096.4 251.44 1090.47 250.563C1087.19 256.367 1087.1 263.169 1087.6 268.451C1087.6 268.428 1073.73 268.216 1067.59 257.42Z" fill="black"/>
<path d="M1141.79 227.442C1141.79 227.442 1148.65 220.936 1155.92 227.156" stroke="black" stroke-width="3" stroke-miterlimit="10"/>
<path d="M1126.59 241.895C1126.59 241.895 1123.75 255.623 1108.26 256.519" stroke="black" stroke-width="3" stroke-miterlimit="10"/>
<path d="M1146.21 259.193L1141.28 222.026C1141.12 220.789 1140.49 219.661 1139.52 218.873C1138.55 218.085 1137.32 217.696 1136.07 217.787" stroke="#7F2CCB" stroke-width="5" stroke-miterlimit="10" stroke-linecap="round"/>
<path d="M1150.31 286.15C1151.63 292.652 1163.14 310.434 1143.13 344.369C1123.12 378.303 1149.14 388.411 1135.98 411.656C1122.82 434.901 1094.29 433.626 1095.76 472.525C1096.73 498.12 1073.76 501.583 1075.08 472.525" stroke="#7F2CCB" stroke-width="5" stroke-miterlimit="10" stroke-linecap="round"/>
<path d="M1108.38 437.676C1115.25 432.075 1122.19 400.357 1111.17 382.311C1100.15 364.266 1089.38 339.94 1105.63 309.298" stroke="#7F2CCB" stroke-width="5" stroke-miterlimit="10" stroke-linecap="round"/>
<path d="M1150.62 258.544L1140.9 260.01C1137.95 260.456 1135.91 263.212 1136.36 266.164L1138.82 282.432C1139.26 285.385 1142.02 287.417 1144.98 286.971L1154.7 285.505C1157.65 285.059 1159.69 282.304 1159.24 279.351L1156.78 263.083C1156.33 260.13 1153.58 258.098 1150.62 258.544Z" fill="#FFFBFC" stroke="#7F2CCB" stroke-width="6" stroke-miterlimit="10"/>
<path d="M862.662 481.811H1111.41C1114.06 481.811 1116.2 484.877 1116.2 488.663V489.291C1116.2 493.073 1114.06 496.139 1111.41 496.139H924.145" fill="#FFFBFC"/>
<path d="M865.435 480.887H1111.41C1114.06 480.887 1116.2 483.953 1116.2 487.74V488.368C1116.2 492.15 1114.06 495.216 1111.41 495.216H925.069" stroke="black" stroke-width="5" stroke-miterlimit="10" stroke-linecap="round"/>
<path d="M1099.72 789L1052.59 495.678H1068.82L1115.49 788.538L1099.72 789Z" fill="#FFFBFC"/>
<path d="M1071.56 510.574L1054.06 504.049L1052.59 495.678H1068.82L1071.56 510.574Z" fill="#CEEFF7"/>
<path d="M1098.8 787.153L1052.59 495.678H1068.82L1114.56 786.691" stroke="black" stroke-width="7" stroke-miterlimit="10" stroke-linecap="round"/>
<path d="M1040.27 468.812H900.277C898.422 468.813 896.612 468.245 895.09 467.185C893.569 466.124 892.411 464.623 891.771 462.883L859.509 375.062C859.105 373.973 858.972 372.802 859.119 371.65C859.267 370.498 859.691 369.399 860.356 368.447C861.021 367.494 861.906 366.716 862.937 366.18C863.968 365.643 865.114 365.363 866.277 365.365H1008.12C1010.21 365.367 1012.25 366.011 1013.97 367.211C1015.68 368.412 1016.98 370.109 1017.7 372.074L1048.78 456.65C1049.28 458.017 1049.44 459.485 1049.25 460.929C1049.06 462.374 1048.53 463.751 1047.69 464.945C1046.86 466.139 1045.75 467.114 1044.46 467.787C1043.16 468.46 1041.73 468.812 1040.27 468.812Z" fill="#FFFBFC" stroke="#B48291" stroke-width="5" stroke-miterlimit="10"/>
<path d="M1034.18 468.812H898.891C897.075 468.794 895.31 468.214 893.838 467.152C892.366 466.09 891.26 464.599 890.671 462.883L859.495 375.062C857.826 370.366 861.192 365.365 866.036 365.365H1003.11C1005.15 365.387 1007.14 366.043 1008.79 367.24C1010.45 368.437 1011.69 370.118 1012.35 372.051L1042.4 456.631C1044.49 462.579 1040.26 468.812 1034.18 468.812Z" fill="#FFFBFC" stroke="#B48291" stroke-width="5" stroke-miterlimit="10"/>
<path d="M1100.01 468.812H898.604C896.033 468.812 893.949 470.894 893.949 473.462V473.702C893.949 476.271 896.033 478.352 898.604 478.352H1100.01C1102.59 478.352 1104.67 476.271 1104.67 473.702V473.462C1104.67 470.894 1102.59 468.812 1100.01 468.812Z" fill="#FFFBFC" stroke="#B48291" stroke-width="5" stroke-miterlimit="10"/>
</g>
</g>
<defs>
<filter id="filter0_d_5_184" x="-9" y="0" width="1458" height="102" filterUnits="userSpaceOnUse" color-interpolation-filters="sRGB">
<feFlood flood-opacity="0" result="BackgroundImageFix"/>
<feColorMatrix in="SourceAlpha" type="matrix" values="0 0 0 0 0 0 0 0 0 0 0 0 0 0 0 0 0 0 127 0" result="hardAlpha"/>
<feMorphology radius="6" operator="erode" in="SourceAlpha" result="effect1_dropShadow_5_184"/>
<feOffset dy="23"/>
<feGaussianBlur stdDeviation="7.5"/>
<feComposite in2="hardAlpha" operator="out"/>
<feColorMatrix type="matrix" values="0 0 0 0 0 0 0 0 0 0 0 0 0 0 0 0 0 0 0.25 0"/>
<feBlend mode="normal" in2="BackgroundImageFix" result="effect1_dropShadow_5_184"/>
<feBlend mode="normal" in="SourceGraphic" in2="effect1_dropShadow_5_184" result="shape"/>
</filter>
<clipPath id="clip0_5_184">
<rect width="1440" height="1024" fill="white"/>
</clipPath>
<clipPath id="clip1_5_184">
<rect width="24" height="24" fill="white" transform="translate(1260 23)"/>
</clipPath>
<clipPath id="clip2_5_184">
<rect width="438" height="573" fill="white" transform="translate(853 216)"/>
</clipPath>
</defs>
</svg>
