<svg width="1440" height="100" viewBox="0 0 1440 100" fill="none" xmlns="http://www.w3.org/2000/svg">
<rect width="1440" height="100" fill="#7F2CCB"/>
<path d="M58.9395 74V69.0352L63.3594 68.127V32.6768L58.6064 31.7686V26.7734H71.5635V68.127L75.6201 69.0352V74H58.9395ZM79.8281 74V69.2168L82.5225 68.6719L82.4619 68.5508L75.3174 59.0449L80.4336 53.4746L91.6953 68.127L95.9033 69.0352V74H79.8281ZM70.7461 64.9482L66.9316 60.0439L81.1602 46.7842L81.251 46.6631L77.8604 46.209V41.2441H94.2686V46.2393L90.0605 47.2686L70.7461 64.9482ZM112.947 74.6357C109.456 74.6357 106.721 73.5358 104.743 71.3359C102.785 69.1159 101.807 65.6748 101.807 61.0127V47.1475L98.1738 46.2393V41.2441H101.807H110.041V61.0732C110.041 63.6566 110.465 65.4932 111.312 66.583C112.18 67.6527 113.502 68.1875 115.278 68.1875C116.752 68.1875 118.033 67.8949 119.123 67.3096C120.213 66.7243 121.091 65.8867 121.757 64.7969V47.1475L117.761 46.2393V41.2441H121.757H129.991V68.127L133.896 69.0352V74H122.726L122.181 69.7012C121.151 71.2956 119.85 72.5166 118.275 73.3643C116.721 74.2119 114.945 74.6357 112.947 74.6357ZM137.832 74V69.0352L142.222 68.127V47.1475L137.499 46.2393V41.2441H149.851L150.214 45.3311L150.274 46.0273C151.102 44.2715 152.131 42.9395 153.362 42.0312C154.593 41.1029 156.047 40.6387 157.722 40.6387C158.267 40.6387 158.852 40.6891 159.478 40.79C160.123 40.8708 160.668 40.9818 161.112 41.123L160.174 48.7217L155.845 48.4795C154.533 48.4189 153.453 48.6611 152.605 49.2061C151.778 49.751 151.062 50.528 150.456 51.5371V68.127L154.846 69.0352V74H137.832ZM177.339 74.6055C174.433 74.6055 172.172 73.7982 170.558 72.1836C168.963 70.5488 168.166 67.9655 168.166 64.4336V47.0869H163.534V41.2441H168.166V33.252H176.37V41.2441H182.637V47.0869H176.37V64.4336C176.37 65.7656 176.653 66.7243 177.218 67.3096C177.783 67.8949 178.54 68.1875 179.488 68.1875C180.013 68.1875 180.588 68.1471 181.214 68.0664C181.84 67.9857 182.364 67.9049 182.788 67.8242L183.575 73.667C182.667 73.9294 181.658 74.1514 180.548 74.333C179.458 74.5146 178.388 74.6055 177.339 74.6055ZM189.115 58.3789V52.0215H205.705V58.3789H189.115ZM224.202 74.6357C221.599 74.6357 219.358 73.9697 217.481 72.6377C215.604 71.3057 214.161 69.4388 213.152 67.0371C212.163 64.6152 211.669 61.7998 211.669 58.5908V57.9551C211.669 54.5039 212.163 51.4766 213.152 48.873C214.161 46.2695 215.604 44.2513 217.481 42.8184C219.358 41.3652 221.589 40.6387 224.172 40.6387C226.029 40.6387 227.643 41.002 229.016 41.7285C230.388 42.4349 231.569 43.4541 232.558 44.7861V32.6768L227.805 31.7686V26.7734H232.558H240.792V68.127L245.182 69.0352V74H233.678L233.042 70.0342C232.013 71.5479 230.771 72.6982 229.318 73.4854C227.865 74.2523 226.16 74.6357 224.202 74.6357ZM226.594 68.1875C227.946 68.1875 229.117 67.8949 230.105 67.3096C231.094 66.7243 231.912 65.8867 232.558 64.7969V50.6289C231.932 49.5189 231.125 48.651 230.136 48.0254C229.147 47.3997 227.986 47.0869 226.654 47.0869C225.1 47.0869 223.819 47.5511 222.81 48.4795C221.821 49.3877 221.084 50.6592 220.6 52.2939C220.135 53.9085 219.903 55.7956 219.903 57.9551V58.5908C219.903 61.5576 220.428 63.8988 221.478 65.6143C222.527 67.3298 224.232 68.1875 226.594 68.1875ZM262.195 74.6357C259.794 74.6357 257.553 74.4137 255.475 73.9697C253.416 73.5055 251.398 72.8294 249.42 71.9414L249.329 62.9805H255.142L256.292 67.7031C257.079 68.0664 257.907 68.349 258.774 68.5508C259.642 68.7526 260.621 68.8535 261.711 68.8535C263.79 68.8535 265.253 68.5104 266.101 67.8242C266.968 67.1178 267.402 66.2399 267.402 65.1904C267.402 64.1813 266.948 63.3135 266.04 62.5869C265.132 61.8402 263.376 61.1943 260.772 60.6494C256.877 59.8219 254.011 58.5807 252.175 56.9258C250.338 55.2507 249.42 53.1113 249.42 50.5078C249.42 48.6914 249.884 47.0465 250.812 45.5732C251.761 44.0999 253.174 42.9193 255.051 42.0312C256.928 41.123 259.279 40.6689 262.104 40.6689C264.587 40.6689 266.817 40.9212 268.795 41.4258C270.793 41.9303 272.478 42.5762 273.851 43.3633L274.002 52.0215H268.22L267.281 47.7227C266.696 47.2988 266.01 46.9759 265.223 46.7539C264.436 46.5117 263.548 46.3906 262.559 46.3906C260.944 46.3906 259.683 46.7337 258.774 47.4199C257.886 48.1061 257.442 48.974 257.442 50.0234C257.442 50.6289 257.594 51.1839 257.896 51.6885C258.199 52.193 258.785 52.6673 259.652 53.1113C260.54 53.5352 261.832 53.9388 263.527 54.3223C267.685 55.2708 270.682 56.5322 272.519 58.1064C274.375 59.6807 275.304 61.82 275.304 64.5244C275.304 67.5114 274.214 69.9434 272.034 71.8203C269.875 73.6973 266.595 74.6357 262.195 74.6357Z" fill="white"/>
<path d="M897.411 70V66.8623L901.47 66.165V35.0122L897.411 34.3149V31.1523H906.376V46.6416C907.306 45.3467 908.443 44.3423 909.788 43.6284C911.132 42.9146 912.626 42.5576 914.27 42.5576C917.159 42.5576 919.4 43.4209 920.994 45.1475C922.587 46.874 923.384 49.5303 923.384 53.1162V66.165L927.443 66.8623V70H914.419V66.8623L918.479 66.165V53.0664C918.479 50.8418 917.997 49.1982 917.034 48.1357C916.088 47.0732 914.668 46.542 912.776 46.542C911.431 46.542 910.203 46.8657 909.09 47.5132C907.995 48.144 907.09 49.0073 906.376 50.103V66.165L910.435 66.8623V70H897.411ZM942.584 70.5229C940.094 70.5229 937.944 69.9419 936.134 68.7798C934.341 67.6011 932.955 65.9824 931.976 63.9238C930.996 61.8486 930.506 59.4829 930.506 56.8267V56.2788C930.506 53.6226 930.996 51.2651 931.976 49.2065C932.955 47.1313 934.341 45.5044 936.134 44.3257C937.944 43.147 940.077 42.5576 942.534 42.5576C945.024 42.5576 947.166 43.147 948.959 44.3257C950.769 45.5044 952.163 47.123 953.143 49.1816C954.122 51.2402 954.612 53.606 954.612 56.2788V56.8267C954.612 59.4995 954.122 61.8735 953.143 63.9487C952.163 66.0073 950.777 67.6177 948.984 68.7798C947.191 69.9419 945.058 70.5229 942.584 70.5229ZM942.584 66.688C944.145 66.688 945.448 66.2646 946.494 65.418C947.556 64.5547 948.353 63.3843 948.884 61.9067C949.432 60.4126 949.706 58.7192 949.706 56.8267V56.2788C949.706 54.3862 949.432 52.7012 948.884 51.2236C948.353 49.7295 947.556 48.5591 946.494 47.7124C945.431 46.8491 944.111 46.4175 942.534 46.4175C940.974 46.4175 939.662 46.8491 938.6 47.7124C937.537 48.5591 936.74 49.7295 936.209 51.2236C935.678 52.7012 935.412 54.3862 935.412 56.2788V56.8267C935.412 58.7192 935.678 60.4126 936.209 61.9067C936.74 63.3843 937.537 64.5547 938.6 65.418C939.679 66.2646 941.007 66.688 942.584 66.688ZM958.397 70V66.8623L962.456 66.165V46.9155L958.397 46.2183V43.0557H966.864L967.188 46.5669C968.051 45.2886 969.163 44.3008 970.524 43.6035C971.886 42.9062 973.463 42.5576 975.256 42.5576C977.049 42.5576 978.584 42.9727 979.863 43.8027C981.158 44.6328 982.129 45.8779 982.776 47.5381C983.623 46.0107 984.744 44.7988 986.138 43.9023C987.533 43.0059 989.16 42.5576 991.019 42.5576C993.775 42.5576 995.95 43.5039 997.543 45.3965C999.137 47.2725 999.934 50.103 999.934 53.8882V66.165L1003.99 66.8623V70H990.944V66.8623L995.003 66.165V53.8384C995.003 51.1821 994.547 49.3062 993.634 48.2104C992.721 47.0981 991.368 46.542 989.575 46.542C987.865 46.542 986.487 47.1479 985.441 48.3599C984.412 49.5552 983.814 51.0659 983.648 52.8921V66.165L987.707 66.8623V70H974.683V66.8623L978.742 66.165V53.8384C978.742 51.3149 978.269 49.4722 977.323 48.3101C976.393 47.1313 975.04 46.542 973.264 46.542C971.77 46.542 970.541 46.8491 969.578 47.4634C968.615 48.0776 967.876 48.9409 967.362 50.0532V66.165L971.421 66.8623V70H958.397ZM1019.53 70.5229C1017.04 70.5229 1014.88 69.9585 1013.03 68.8296C1011.19 67.6841 1009.76 66.0986 1008.75 64.0732C1007.75 62.0479 1007.26 59.707 1007.26 57.0508V55.9551C1007.26 53.3984 1007.78 51.1157 1008.82 49.1069C1009.89 47.0815 1011.29 45.4878 1013.03 44.3257C1014.79 43.147 1016.71 42.5576 1018.79 42.5576C1021.21 42.5576 1023.23 43.0557 1024.86 44.0518C1026.5 45.0479 1027.74 46.4507 1028.57 48.2603C1029.4 50.0532 1029.82 52.1699 1029.82 54.6104V57.6733H1012.34L1012.26 57.7979C1012.29 59.5244 1012.59 61.0601 1013.16 62.4048C1013.74 63.7329 1014.57 64.7788 1015.65 65.5425C1016.73 66.3062 1018.02 66.688 1019.53 66.688C1021.19 66.688 1022.65 66.4556 1023.89 65.9907C1025.15 65.5093 1026.24 64.8535 1027.15 64.0234L1029.07 67.2109C1028.11 68.1406 1026.83 68.9292 1025.23 69.5767C1023.66 70.2075 1021.76 70.5229 1019.53 70.5229ZM1012.48 53.8384H1024.91V53.1909C1024.91 51.896 1024.68 50.7422 1024.21 49.7295C1023.77 48.7002 1023.08 47.895 1022.17 47.314C1021.28 46.7163 1020.15 46.4175 1018.79 46.4175C1017.69 46.4175 1016.69 46.7412 1015.8 47.3887C1014.9 48.0195 1014.16 48.8828 1013.58 49.9785C1013 51.0742 1012.62 52.3193 1012.44 53.7139L1012.48 53.8384Z" fill="white"/>
<path d="M1070.1 70.5229C1067.29 70.5229 1065.16 69.8423 1063.7 68.481C1062.24 67.103 1061.51 65.1689 1061.51 62.6787C1061.51 60.9688 1061.97 59.4829 1062.9 58.2212C1063.85 56.9429 1065.21 55.9551 1066.99 55.2578C1068.76 54.5439 1070.89 54.187 1073.36 54.187H1078.17V51.5474C1078.17 49.9204 1077.67 48.6587 1076.67 47.7622C1075.69 46.8657 1074.31 46.4175 1072.51 46.4175C1071.38 46.4175 1070.41 46.5586 1069.58 46.8408C1068.75 47.1064 1067.99 47.48 1067.31 47.9614L1066.79 51.7217H1063V45.5459C1064.21 44.5664 1065.62 43.8276 1067.23 43.3296C1068.84 42.8149 1070.63 42.5576 1072.59 42.5576C1075.86 42.5576 1078.42 43.3379 1080.28 44.8984C1082.14 46.459 1083.07 48.6919 1083.07 51.5972V64.5713C1083.07 64.9199 1083.07 65.2603 1083.07 65.5923C1083.09 65.9243 1083.11 66.2563 1083.15 66.5884L1085.76 66.8623V70H1078.71C1078.56 69.2695 1078.45 68.6138 1078.37 68.0327C1078.28 67.4517 1078.22 66.8706 1078.19 66.2896C1077.25 67.5015 1076.06 68.5142 1074.63 69.3276C1073.22 70.1245 1071.71 70.5229 1070.1 70.5229ZM1070.82 66.4141C1072.45 66.4141 1073.93 66.0239 1075.28 65.2437C1076.62 64.4634 1077.59 63.5254 1078.17 62.4297V57.5488H1073.19C1070.93 57.5488 1069.23 58.0884 1068.11 59.1675C1066.98 60.2466 1066.41 61.4502 1066.41 62.7783C1066.41 63.957 1066.78 64.8618 1067.51 65.4927C1068.24 66.1069 1069.34 66.4141 1070.82 66.4141ZM1103.89 70.5229C1102.13 70.5229 1100.6 70.1909 1099.31 69.5269C1098.01 68.8462 1096.93 67.8501 1096.07 66.5386L1095.62 70H1091.39V35.0122L1087.33 34.3149V31.1523H1096.3V46.2432C1097.14 45.0479 1098.19 44.1348 1099.43 43.5039C1100.69 42.873 1102.16 42.5576 1103.84 42.5576C1106.07 42.5576 1107.96 43.1636 1109.52 44.3755C1111.1 45.5708 1112.3 47.2559 1113.13 49.4307C1113.98 51.6055 1114.4 54.1372 1114.4 57.0259V57.5488C1114.4 60.1387 1113.98 62.4048 1113.13 64.3472C1112.3 66.2896 1111.1 67.8086 1109.52 68.9043C1107.96 69.9834 1106.08 70.5229 1103.89 70.5229ZM1102.65 66.5386C1104.95 66.5386 1106.66 65.7168 1107.78 64.0732C1108.9 62.4297 1109.47 60.2549 1109.47 57.5488V57.0259C1109.47 54.9507 1109.22 53.1328 1108.72 51.5723C1108.22 49.9951 1107.47 48.7666 1106.46 47.8867C1105.44 46.9902 1104.16 46.542 1102.6 46.542C1101.08 46.542 1099.81 46.9072 1098.76 47.6377C1097.73 48.3682 1096.91 49.3477 1096.3 50.5762V62.4795C1096.91 63.7246 1097.74 64.7124 1098.79 65.4429C1099.85 66.1733 1101.13 66.5386 1102.65 66.5386ZM1131.28 70.5229C1128.79 70.5229 1126.64 69.9419 1124.83 68.7798C1123.04 67.6011 1121.65 65.9824 1120.67 63.9238C1119.7 61.8486 1119.21 59.4829 1119.21 56.8267V56.2788C1119.21 53.6226 1119.7 51.2651 1120.67 49.2065C1121.65 47.1313 1123.04 45.5044 1124.83 44.3257C1126.64 43.147 1128.78 42.5576 1131.23 42.5576C1133.72 42.5576 1135.87 43.147 1137.66 44.3257C1139.47 45.5044 1140.86 47.123 1141.84 49.1816C1142.82 51.2402 1143.31 53.606 1143.31 56.2788V56.8267C1143.31 59.4995 1142.82 61.8735 1141.84 63.9487C1140.86 66.0073 1139.48 67.6177 1137.68 68.7798C1135.89 69.9419 1133.76 70.5229 1131.28 70.5229ZM1131.28 66.688C1132.84 66.688 1134.15 66.2646 1135.19 65.418C1136.26 64.5547 1137.05 63.3843 1137.58 61.9067C1138.13 60.4126 1138.41 58.7192 1138.41 56.8267V56.2788C1138.41 54.3862 1138.13 52.7012 1137.58 51.2236C1137.05 49.7295 1136.26 48.5591 1135.19 47.7124C1134.13 46.8491 1132.81 46.4175 1131.23 46.4175C1129.67 46.4175 1128.36 46.8491 1127.3 47.7124C1126.24 48.5591 1125.44 49.7295 1124.91 51.2236C1124.38 52.7012 1124.11 54.3862 1124.11 56.2788V56.8267C1124.11 58.7192 1124.38 60.4126 1124.91 61.9067C1125.44 63.3843 1126.24 64.5547 1127.3 65.418C1128.38 66.2646 1129.71 66.688 1131.28 66.688ZM1158.95 70.5229C1156.03 70.5229 1153.75 69.585 1152.1 67.709C1150.46 65.833 1149.64 62.9111 1149.64 58.9434V46.9155L1146.55 46.2183V43.0557H1149.64H1154.54V58.9932C1154.54 61.8652 1154.97 63.8408 1155.81 64.9199C1156.66 65.999 1157.98 66.5386 1159.77 66.5386C1161.51 66.5386 1162.95 66.1899 1164.08 65.4927C1165.23 64.7788 1166.09 63.7744 1166.67 62.4795V46.9155L1163.06 46.2183V43.0557H1166.67H1171.58V66.165L1174.66 66.8623V70H1167.17L1166.84 66.0156C1166 67.46 1164.9 68.5723 1163.56 69.3525C1162.23 70.1328 1160.69 70.5229 1158.95 70.5229ZM1187.64 70.4233C1185.65 70.4233 1184.06 69.8423 1182.88 68.6802C1181.72 67.5015 1181.14 65.6255 1181.14 63.0522V46.6914H1176.88V43.0557H1181.14V36.5562H1186.04V43.0557H1191.9V46.6914H1186.04V63.0522C1186.04 64.3472 1186.3 65.3018 1186.82 65.916C1187.33 66.5303 1188.02 66.8374 1188.88 66.8374C1189.46 66.8374 1190.11 66.7876 1190.82 66.688C1191.54 66.5718 1192.09 66.4722 1192.49 66.3892L1193.17 69.6016C1192.45 69.8174 1191.57 70.0083 1190.53 70.1743C1189.5 70.3403 1188.53 70.4233 1187.64 70.4233Z" fill="white"/>
<path d="M1223.17 80.3594V77.1968L1226.98 76.4995V46.9155L1222.92 46.2183V43.0557H1231.19L1231.63 46.3428C1232.53 45.1143 1233.62 44.1763 1234.9 43.5288C1236.19 42.8813 1237.69 42.5576 1239.38 42.5576C1241.6 42.5576 1243.5 43.1636 1245.08 44.3755C1246.66 45.5708 1247.86 47.2559 1248.69 49.4307C1249.52 51.5889 1249.94 54.1206 1249.94 57.0259V57.5488C1249.94 60.1387 1249.51 62.4048 1248.67 64.3472C1247.84 66.2896 1246.64 67.8086 1245.08 68.9043C1243.52 69.9834 1241.64 70.5229 1239.45 70.5229C1237.79 70.5229 1236.33 70.249 1235.07 69.7012C1233.83 69.1367 1232.76 68.3066 1231.88 67.2109V76.4995L1236.17 77.1968V80.3594H1223.17ZM1237.93 66.688C1240.26 66.688 1242.02 65.8413 1243.21 64.1479C1244.41 62.4546 1245.01 60.2549 1245.01 57.5488V57.0259C1245.01 54.9673 1244.74 53.1577 1244.21 51.5972C1243.68 50.02 1242.88 48.7832 1241.82 47.8867C1240.77 46.9902 1239.46 46.542 1237.88 46.542C1236.49 46.542 1235.29 46.8574 1234.3 47.4883C1233.3 48.1191 1232.5 48.9824 1231.88 50.0781V63.2017C1232.5 64.314 1233.29 65.1772 1234.27 65.7915C1235.27 66.3892 1236.49 66.688 1237.93 66.688ZM1253.7 70V66.8623L1257.76 66.165V46.9155L1253.7 46.2183V43.0557H1262.14L1262.56 46.4922L1262.61 46.9653C1263.38 45.5874 1264.31 44.5083 1265.43 43.728C1266.56 42.9478 1267.84 42.5576 1269.29 42.5576C1269.8 42.5576 1270.32 42.6074 1270.85 42.707C1271.4 42.79 1271.79 42.873 1272.03 42.9561L1271.38 47.5132L1267.97 47.314C1266.67 47.231 1265.58 47.5298 1264.7 48.2104C1263.82 48.8745 1263.14 49.771 1262.66 50.8999V66.165L1266.72 66.8623V70H1253.7ZM1286.69 70.5229C1284.2 70.5229 1282.05 69.9419 1280.24 68.7798C1278.45 67.6011 1277.06 65.9824 1276.08 63.9238C1275.1 61.8486 1274.62 59.4829 1274.62 56.8267V56.2788C1274.62 53.6226 1275.1 51.2651 1276.08 49.2065C1277.06 47.1313 1278.45 45.5044 1280.24 44.3257C1282.05 43.147 1284.19 42.5576 1286.64 42.5576C1289.13 42.5576 1291.27 43.147 1293.07 44.3257C1294.88 45.5044 1296.27 47.123 1297.25 49.1816C1298.23 51.2402 1298.72 53.606 1298.72 56.2788V56.8267C1298.72 59.4995 1298.23 61.8735 1297.25 63.9487C1296.27 66.0073 1294.89 67.6177 1293.09 68.7798C1291.3 69.9419 1289.17 70.5229 1286.69 70.5229ZM1286.69 66.688C1288.25 66.688 1289.56 66.2646 1290.6 65.418C1291.67 64.5547 1292.46 63.3843 1292.99 61.9067C1293.54 60.4126 1293.81 58.7192 1293.81 56.8267V56.2788C1293.81 54.3862 1293.54 52.7012 1292.99 51.2236C1292.46 49.7295 1291.67 48.5591 1290.6 47.7124C1289.54 46.8491 1288.22 46.4175 1286.64 46.4175C1285.08 46.4175 1283.77 46.8491 1282.71 47.7124C1281.65 48.5591 1280.85 49.7295 1280.32 51.2236C1279.79 52.7012 1279.52 54.3862 1279.52 56.2788V56.8267C1279.52 58.7192 1279.79 60.4126 1280.32 61.9067C1280.85 63.3843 1281.65 64.5547 1282.71 65.418C1283.79 66.2646 1285.12 66.688 1286.69 66.688ZM1302.06 80.8823C1301.53 80.8823 1301.04 80.8408 1300.61 80.7578C1300.18 80.6914 1299.73 80.5835 1299.27 80.4341L1299.59 76.6987C1299.82 76.7817 1300.21 76.8564 1300.76 76.9229C1301.33 76.9893 1301.76 77.0225 1302.06 77.0225C1303.04 77.0225 1303.81 76.5908 1304.37 75.7275C1304.95 74.8809 1305.25 73.7104 1305.25 72.2163V46.9155L1301.19 46.2183V43.0557H1310.15V72.2163C1310.15 74.9888 1309.44 77.1221 1308.01 78.6162C1306.58 80.127 1304.6 80.8823 1302.06 80.8823ZM1305 36.4067V31.1523H1310.15V36.4067H1305ZM1327.88 70.5229C1325.39 70.5229 1323.22 69.9585 1321.38 68.8296C1319.54 67.6841 1318.11 66.0986 1317.1 64.0732C1316.1 62.0479 1315.6 59.707 1315.6 57.0508V55.9551C1315.6 53.3984 1316.13 51.1157 1317.17 49.1069C1318.24 47.0815 1319.64 45.4878 1321.38 44.3257C1323.14 43.147 1325.06 42.5576 1327.13 42.5576C1329.56 42.5576 1331.58 43.0557 1333.21 44.0518C1334.85 45.0479 1336.09 46.4507 1336.92 48.2603C1337.75 50.0532 1338.17 52.1699 1338.17 54.6104V57.6733H1320.68L1320.61 57.7979C1320.64 59.5244 1320.94 61.0601 1321.51 62.4048C1322.09 63.7329 1322.92 64.7788 1324 65.5425C1325.08 66.3062 1326.37 66.688 1327.88 66.688C1329.54 66.688 1330.99 66.4556 1332.24 65.9907C1333.5 65.5093 1334.59 64.8535 1335.5 64.0234L1337.42 67.2109C1336.46 68.1406 1335.18 68.9292 1333.58 69.5767C1332.01 70.2075 1330.11 70.5229 1327.88 70.5229ZM1320.83 53.8384H1333.26V53.1909C1333.26 51.896 1333.03 50.7422 1332.56 49.7295C1332.11 48.7002 1331.43 47.895 1330.52 47.314C1329.62 46.7163 1328.5 46.4175 1327.13 46.4175C1326.04 46.4175 1325.04 46.7412 1324.15 47.3887C1323.25 48.0195 1322.51 48.8828 1321.93 49.9785C1321.35 51.0742 1320.97 52.3193 1320.78 53.7139L1320.83 53.8384ZM1355.17 70.5229C1352.73 70.5229 1350.61 69.9585 1348.8 68.8296C1346.99 67.6841 1345.59 66.0986 1344.59 64.0732C1343.59 62.0479 1343.1 59.707 1343.1 57.0508V56.0049C1343.1 53.4482 1343.58 51.1572 1344.54 49.1318C1345.5 47.1064 1346.89 45.5044 1348.7 44.3257C1350.51 43.147 1352.67 42.5576 1355.17 42.5576C1357.35 42.5576 1359.25 42.9146 1360.88 43.6284C1362.52 44.3423 1363.9 45.3218 1365.01 46.5669L1365.14 53.0415H1361.3L1360.45 48.335C1359.89 47.7539 1359.18 47.2891 1358.34 46.9404C1357.49 46.5918 1356.49 46.4175 1355.35 46.4175C1353.89 46.4175 1352.6 46.8491 1351.49 47.7124C1350.39 48.5757 1349.54 49.7295 1348.92 51.1738C1348.31 52.6182 1348 54.2285 1348 56.0049V57.0508C1348 59.0098 1348.28 60.7114 1348.85 62.1558C1349.43 63.6001 1350.25 64.7207 1351.31 65.5176C1352.39 66.2979 1353.67 66.688 1355.15 66.688C1356.81 66.688 1358.19 66.2314 1359.28 65.3184C1360.38 64.4053 1361.05 63.1519 1361.3 61.5581H1365.71L1365.76 61.7075C1365.67 63.2515 1365.22 64.6958 1364.39 66.0405C1363.56 67.3853 1362.37 68.4727 1360.83 69.3027C1359.3 70.1162 1357.42 70.5229 1355.17 70.5229ZM1379.11 70.4233C1377.11 70.4233 1375.53 69.8423 1374.35 68.6802C1373.19 67.5015 1372.61 65.6255 1372.61 63.0522V46.6914H1368.35V43.0557H1372.61V36.5562H1377.51V43.0557H1383.36V46.6914H1377.51V63.0522C1377.51 64.3472 1377.77 65.3018 1378.28 65.916C1378.8 66.5303 1379.49 66.8374 1380.35 66.8374C1380.93 66.8374 1381.58 66.7876 1382.29 66.688C1383.01 66.5718 1383.56 66.4722 1383.96 66.3892L1384.63 69.6016C1383.92 69.8174 1383.04 70.0083 1381.99 70.1743C1380.96 70.3403 1380 70.4233 1379.11 70.4233Z" fill="white"/>
<line x1="896" y1="81.5" x2="1030" y2="81.5" stroke="#B48291" stroke-width="5"/>
</svg>
